<svg width="29" height="29" viewBox="0 0 29 29" fill="none" xmlns="http://www.w3.org/2000/svg">
<g clip-path="url(#clip0_41_1059)">
<path d="M26.9001 23.8196C25.6612 23.0732 23.7011 22.8649 23.6619 19.9236C23.641 18.1782 24.8749 16.2689 25.2243 14.6058C25.9942 10.9517 25.1205 8.67448 24.8913 7.77552C23.4156 2.01894 16.441 -1.23317 9.91083 0.43815C6.43524 1.32762 3.65856 3.4554 2.03472 6.11369C1.55358 6.86832 1.17753 7.67549 0.921135 8.52255C0.545087 9.71906 0.401379 10.9719 0.496973 12.2336C0.667271 15.3136 2.0727 18.4714 4.66135 20.8979C9.57973 25.5074 23.6461 31.8926 27.7104 27.5573C29.2304 25.9347 28.4543 24.7565 26.9001 23.8196ZM6.25228 13.3966C5.1368 13.3966 4.23276 12.4919 4.23276 11.3765C4.23276 10.261 5.13743 9.35631 6.25228 9.35631C7.36839 9.35631 8.27306 10.261 8.27306 11.3765C8.27306 12.4919 7.36903 13.3966 6.25228 13.3966ZM11.7683 7.88187C10.6528 7.88187 9.74876 6.9772 9.74876 5.86172C9.74876 4.74624 10.6534 3.84157 11.7683 3.84157C12.8844 3.84157 13.7891 4.74624 13.7891 5.86172C13.7891 6.9772 12.8844 7.88187 11.7683 7.88187ZM18.9841 10.2262C17.8673 10.2262 16.9639 9.32149 16.9639 8.20601C16.9639 7.09053 17.8686 6.18586 18.9841 6.18586C20.0996 6.18586 21.0036 7.09053 21.0036 8.20601C21.0042 9.32149 20.0996 10.2262 18.9841 10.2262Z" fill="white"/>
</g>
<defs>
<clipPath id="clip0_41_1059">
<rect width="29" height="29" fill="white"/>
</clipPath>
</defs>
</svg>
