<svg width="49" height="50" viewBox="0 0 49 50" fill="none" xmlns="http://www.w3.org/2000/svg">
<g clip-path="url(#clip0_41_1153)">
<path d="M33.7864 17.9256C33.8366 17.6645 33.8768 17.3833 33.8768 17.082C33.8768 14.1597 31.2665 11.7796 28.0639 11.7796C26.6684 11.7796 25.283 12.2918 24.249 13.1454C23.1748 12.2717 21.8094 11.7796 20.3938 11.7796C18.8778 11.7796 17.4423 12.3119 16.368 13.296C15.2637 14.3002 14.6613 15.6459 14.6613 17.082C14.6613 17.4637 14.7015 17.8352 14.7718 18.1767C13.1755 19.1407 12.1816 20.7978 12.1816 22.6054C12.1816 23.5694 12.4126 24.4332 12.8944 25.2265C12.4326 26.0098 12.1816 26.9136 12.1816 27.8275C12.1816 29.6452 13.0952 31.262 14.6814 32.2662C14.6613 32.5373 14.6613 32.7985 14.6613 33.0495C14.6613 34.4856 15.2737 35.8313 16.368 36.8356C17.4422 37.8096 18.8678 38.352 20.3938 38.352C21.8094 38.352 23.1647 37.8599 24.249 36.9862C25.293 37.8498 26.6684 38.352 28.0639 38.352C31.2665 38.352 33.8768 35.9719 33.8768 33.0596C33.8768 32.8788 33.8667 32.698 33.8466 32.5273C35.7039 31.6034 36.8986 29.8058 36.8986 27.8374C36.8986 26.9236 36.6476 26.0298 36.1858 25.2364C36.6677 24.4431 36.8986 23.5795 36.8986 22.6153C36.8987 20.617 35.6639 18.7993 33.7864 17.9256ZM34.1981 25.849C34.6599 26.4215 34.9008 27.1044 34.9008 27.8274C34.9008 29.1932 33.8969 30.4485 32.4111 30.9406C31.9292 31.1013 31.638 31.5934 31.7384 32.0955C31.7987 32.437 31.869 32.7684 31.869 33.0495C31.869 34.8672 30.1623 36.3435 28.064 36.3435C26.8995 36.3435 25.7149 35.8012 25.0522 34.9576C24.8715 34.7267 24.5905 34.586 24.2892 34.5759C24.2792 34.5759 24.2792 34.5759 24.2692 34.5759C23.978 34.5759 23.6969 34.6964 23.5262 34.9476C22.7532 35.8413 21.6187 36.3635 20.414 36.3635C18.3559 36.3635 16.6894 34.8873 16.6894 33.0696C16.6894 32.7081 16.6894 32.3365 16.7697 32.1357C16.9706 31.6436 16.7497 31.0812 16.2678 30.8502C14.9827 30.2376 14.2097 29.1128 14.2097 27.8375C14.2097 27.1145 14.4507 26.4316 14.9125 25.8592C15.2137 25.4876 15.2137 24.9654 14.9125 24.5938C14.4306 24.0013 14.2097 23.3686 14.2097 22.6154C14.2097 21.34 15.053 20.165 16.3682 19.6329C16.6192 19.5324 16.8199 19.3316 16.9204 19.0805C17.0208 18.8294 17.0208 18.5482 16.9103 18.2972C16.7497 17.9356 16.6794 17.5541 16.6794 17.082C16.6794 15.2643 18.3559 13.7881 20.404 13.7881C21.5986 13.7881 22.7331 14.3003 23.5162 15.2041C23.717 15.435 23.998 15.5657 24.2993 15.5555C24.6005 15.5455 24.8715 15.4049 25.0623 15.1739C25.7349 14.3303 26.9095 13.788 28.0741 13.788C30.1723 13.788 31.879 15.2642 31.879 17.0819C31.879 17.4536 31.7585 17.805 31.6179 18.2168C31.5376 18.4778 31.5577 18.7691 31.6882 19.0101C31.8188 19.2511 32.0396 19.4319 32.3107 19.5022C33.8367 19.914 34.9008 21.1893 34.9008 22.6054C34.9008 23.3586 34.6799 23.9812 34.1981 24.5838C33.8968 24.9553 33.8968 25.4775 34.1981 25.849Z" fill="#6F89FD"/>
<path d="M26.287 23.3285L24.1385 24.0515L25.4637 20.3158C25.6445 19.7935 25.3734 19.211 24.8513 19.0303C24.3293 18.8496 23.747 19.1207 23.5663 19.6429L21.5483 25.3269C21.4178 25.6985 21.5082 26.1002 21.7793 26.3713C22.0504 26.6524 22.4519 26.7429 22.8133 26.6223L24.9517 25.8992L23.5562 29.7857C23.3655 30.3079 23.6366 30.8804 24.1586 31.0712C24.269 31.1113 24.3895 31.1314 24.4999 31.1314C24.9115 31.1314 25.293 30.8703 25.4637 30.4586L27.5519 24.6238C27.6825 24.2623 27.5921 23.8506 27.321 23.5794C27.05 23.2983 26.6485 23.208 26.287 23.3285Z" fill="#D2DBFF"/>
<path d="M22.8536 6.3366C23.1548 6.58763 23.5664 6.63784 23.9177 6.46714L24.0483 6.40689L23.5262 8.37523C23.3857 8.9075 23.707 9.45985 24.239 9.60042C24.3294 9.6205 24.4097 9.63055 24.5001 9.63055C24.9418 9.63055 25.3535 9.32932 25.4538 8.87737L26.538 4.81017C26.6384 4.42852 26.5079 4.02688 26.2068 3.77575C25.9056 3.52463 25.4839 3.47452 25.1326 3.64522L24.9719 3.72555L25.4538 1.80742C25.5944 1.27514 25.2731 0.73283 24.7309 0.592256C24.1989 0.451683 23.6568 0.772993 23.5162 1.31531L22.5123 5.31222C22.4218 5.69388 22.5524 6.08558 22.8536 6.3366Z" fill="#6F89FD"/>
<path d="M5.36488 7.47143L7.16192 8.60617C6.83067 8.7367 6.58968 9.04807 6.53948 9.40954C6.48927 9.80124 6.67001 10.1828 7.00126 10.3937L10.5652 12.6231C10.7359 12.7235 10.9165 12.7737 11.0973 12.7737C11.4285 12.7737 11.7599 12.603 11.9507 12.3017C12.2419 11.8296 12.1013 11.207 11.6295 10.9158L9.93283 9.85125C10.2641 9.72072 10.495 9.41939 10.5452 9.05791C10.5954 8.66622 10.4147 8.28466 10.0834 8.07379L6.43917 5.77411C5.96734 5.47288 5.35494 5.61345 5.05371 6.08538C4.75248 6.55751 4.89306 7.1701 5.36488 7.47143Z" fill="#D2DBFF"/>
<path d="M10.5754 37.5083L6.93109 39.808C6.5898 40.0189 6.4191 40.4005 6.46931 40.7921C6.51951 41.1537 6.76049 41.4549 7.10179 41.5855L5.38498 42.63C4.91315 42.9112 4.76254 43.5338 5.05373 44.0059C5.23447 44.3171 5.56572 44.4879 5.90711 44.4879C6.07781 44.4879 6.25844 44.4478 6.43918 44.3574L10.0835 42.128C10.4247 41.9272 10.6055 41.5355 10.5553 41.1439C10.5051 40.7622 10.2441 40.4409 9.88264 40.3204L11.6495 39.2057C12.1214 38.9044 12.2619 38.2918 11.9607 37.8198C11.6596 37.3477 11.0472 37.2071 10.5754 37.5083Z" fill="#D2DBFF"/>
<path d="M26.2067 43.7045C25.9055 43.4535 25.4838 43.4033 25.1325 43.574L24.9718 43.6543L25.4537 41.7362C25.5943 41.2039 25.273 40.6616 24.7309 40.521C24.1988 40.3805 23.6567 40.7018 23.5161 41.2441L22.5122 45.241C22.4218 45.6227 22.5523 46.0143 22.8535 46.2654C23.1547 46.5164 23.5663 46.5666 23.9176 46.3959L24.0482 46.3357L23.5261 48.304C23.3856 48.8363 23.7069 49.3886 24.2389 49.5292C24.3293 49.5493 24.4096 49.5593 24.5 49.5593C24.9417 49.5593 25.3534 49.2581 25.4537 48.8062L26.5379 44.739C26.6384 44.3573 26.5079 43.9557 26.2067 43.7045Z" fill="#6F89FD"/>
<path d="M37.9829 12.7738C38.1637 12.7738 38.3544 12.7236 38.515 12.6131L42.079 10.3837C42.4102 10.1829 42.591 9.7912 42.5407 9.3996C42.4905 9.01795 42.2296 8.70668 41.8681 8.58619L43.635 7.48148C44.1068 7.18025 44.2474 6.56765 43.9462 6.09562C43.645 5.62359 43.0326 5.49306 42.5607 5.78435L38.9165 8.08404C38.5752 8.2949 38.4045 8.67656 38.4547 9.06815C38.5149 9.43977 38.7658 9.75104 39.1173 9.87153L37.4508 10.9159C36.979 11.2071 36.8384 11.8297 37.1295 12.3018C37.3203 12.6031 37.6516 12.7738 37.9829 12.7738Z" fill="#D2DBFF"/>
<path d="M43.6251 42.6301L41.9586 41.5857C42.3099 41.4652 42.571 41.1538 42.6212 40.7823C42.6714 40.3906 42.4907 40.009 42.1594 39.7982L38.5151 37.4985C38.0433 37.1973 37.4309 37.3378 37.1297 37.8098C36.8284 38.2817 36.969 38.8944 37.4409 39.1956L39.2079 40.3104C38.8465 40.4309 38.5854 40.7422 38.5352 41.1238C38.485 41.5155 38.6657 41.8971 38.997 42.1079L42.5609 44.3373C42.7316 44.4377 42.9123 44.4879 43.093 44.4879C43.4343 44.4879 43.7556 44.3273 43.9464 44.0159C44.2375 43.5439 44.0969 42.9212 43.6251 42.6301Z" fill="#D2DBFF"/>
</g>
<defs>
<clipPath id="clip0_41_1153">
<rect width="49" height="49" fill="white" transform="translate(0 0.559326)"/>
</clipPath>
</defs>
</svg>
