<svg width="49" height="50" viewBox="0 0 49 50" fill="none" xmlns="http://www.w3.org/2000/svg">
<g clip-path="url(#clip0_41_1328)">
<path d="M12.2809 15.6302H36.7189C37.3628 15.6302 37.8848 15.1082 37.8848 14.4645C37.8848 13.8206 37.3628 13.2986 36.7189 13.2986H12.2809C11.6371 13.2986 11.1152 13.8206 11.1152 14.4645C11.1152 15.1082 11.6373 15.6302 12.2809 15.6302Z" fill="#6F89FD"/>
<path d="M12.2809 9.56032H36.7189C37.3628 9.56032 37.8848 9.03828 37.8848 8.39442C37.8848 7.75056 37.3628 7.22852 36.7189 7.22852H12.2809C11.6371 7.22852 11.1152 7.75056 11.1152 8.39442C11.1152 9.03828 11.6373 9.56032 12.2809 9.56032Z" fill="#D2DBFF"/>
<path d="M41.37 0.559326H7.63001C6.98616 0.559326 6.46411 1.08137 6.46411 1.72507V48.3934C6.46411 49.0373 6.98616 49.5593 7.63001 49.5593H41.37C42.0138 49.5593 42.5359 49.0373 42.5359 48.3934V1.72507C42.5359 1.08137 42.0138 0.559326 41.37 0.559326ZM40.2041 47.2277H20.0129L24.1303 43.1107C24.5855 42.6553 24.5855 41.9171 24.1303 41.4618C23.6749 41.0065 22.9369 41.0065 22.4813 41.4618L16.7154 47.2277H10.4422L16.0759 41.594C16.5313 41.1386 16.5313 40.4004 16.0761 39.945C15.6207 39.4898 14.8826 39.4898 14.4274 39.945L8.79592 45.5765V39.1363L14.5407 33.3917C14.9959 32.9363 14.9959 32.1981 14.5407 31.7427C14.0853 31.2875 13.3473 31.2875 12.8918 31.7427L8.79576 35.8388V2.89113H40.2041V47.2277Z" fill="#6F89FD"/>
<path d="M12.2809 21.7003H36.7189C37.3628 21.7003 37.8848 21.1782 37.8848 20.5343C37.8848 19.8905 37.3628 19.3684 36.7189 19.3684H12.2809C11.6371 19.3684 11.1152 19.8905 11.1152 20.5343C11.1152 21.1782 11.6373 21.7003 12.2809 21.7003Z" fill="#D2DBFF"/>
<path d="M31.6963 29.2813C28.9451 29.2813 26.7068 31.5196 26.7068 34.2708C26.7068 37.0221 28.9451 39.2604 31.6963 39.2604C34.4476 39.2604 36.6859 37.0221 36.6859 34.2708C36.6859 31.5196 34.4476 29.2813 31.6963 29.2813ZM31.6963 36.9575C30.2149 36.9575 29.0097 35.7522 29.0097 34.2708C29.0097 32.7894 30.2149 31.5842 31.6963 31.5842C33.1778 31.5842 34.383 32.7894 34.383 34.2708C34.383 35.7522 33.1778 36.9575 31.6963 36.9575Z" fill="#D2DBFF"/>
</g>
<defs>
<clipPath id="clip0_41_1328">
<rect width="49" height="49" fill="white" transform="translate(0 0.559326)"/>
</clipPath>
</defs>
</svg>
