<svg width="31" height="31" viewBox="0 0 31 31" fill="none" xmlns="http://www.w3.org/2000/svg">
<g clip-path="url(#clip0_41_1018)">
<path d="M15.4996 0C8.31682 0 3.27588 12.034 3.27588 18.5497C3.27588 21.8831 4.52662 25.0053 6.79744 27.3412C9.09122 29.7008 12.1815 31.0002 15.4996 31.0002C18.8178 31.0002 21.9088 29.7008 24.2027 27.3414C26.4739 25.0054 27.7243 21.8831 27.7243 18.5497C27.7241 12.034 22.6832 0 15.4996 0ZM25.2996 18.5497C25.2996 24.1715 20.9951 28.5755 15.4994 28.5755C10.0048 28.5755 5.70026 24.1715 5.70026 18.5497C5.70026 15.5824 6.91624 11.4 8.72624 8.14242C10.7452 4.50851 13.2139 2.42454 15.4996 2.42454C17.7856 2.42454 20.2546 4.50851 22.2738 8.14242C24.0836 11.3999 25.2996 15.5822 25.2996 18.5497Z" fill="white"/>
</g>
<defs>
<clipPath id="clip0_41_1018">
<rect width="31" height="31" fill="white"/>
</clipPath>
</defs>
</svg>
