<svg width="269" height="189" viewBox="0 0 269 189" fill="none" xmlns="http://www.w3.org/2000/svg">
<path opacity="0.39" d="M269 169.359H0C7.98787 137.485 34.6516 145.454 34.6516 145.454C39.9394 129.517 66.6031 134.792 66.6031 134.792C98.5546 113.58 98.5546 76.3183 98.5546 76.3183V55.6675H170.445V76.4305C170.445 76.4305 170.445 113.58 202.397 134.904C202.397 134.904 229.061 129.629 234.348 145.566C234.461 145.454 261.012 137.485 269 169.359Z" fill="url(#paint0_linear_40_747)"/>
<path opacity="0.76" d="M191.371 189H77.7411C81.1162 175.532 92.3668 178.899 92.3668 178.899C94.6169 172.165 105.867 174.41 105.867 174.41C119.368 165.431 119.368 149.718 119.368 149.718V129.517H149.744V149.718C149.744 149.718 149.744 165.431 163.245 174.41C163.245 174.41 174.496 172.165 176.746 178.899C176.746 178.899 187.996 175.532 191.371 189Z" fill="url(#paint1_linear_40_747)"/>
<path d="M96.3045 90.2352C96.3045 90.2352 75.041 99.326 72.9034 139.73C72.7909 142.311 75.716 143.882 77.8536 142.311C83.3664 138.159 92.1418 132.098 98.7796 130.863C100.017 130.639 101.03 129.629 101.255 128.394C101.93 124.354 103.842 116.049 108.793 112.682C115.43 108.192 96.3045 90.2352 96.3045 90.2352Z" fill="url(#paint2_linear_40_747)"/>
<path d="M172.808 90.2352C172.808 90.2352 194.072 99.326 196.209 139.73C196.322 142.311 193.396 143.882 191.259 142.311C185.746 138.159 176.971 132.098 170.333 130.863C169.095 130.639 168.083 129.629 167.858 128.394C167.183 124.354 165.27 116.049 160.32 112.682C153.682 108.192 172.808 90.2352 172.808 90.2352Z" fill="url(#paint3_linear_40_747)"/>
<path d="M154.807 126.15V131.761H114.305V126.15L125.556 119.416L134.556 124.803L143.557 119.416L154.807 126.15Z" fill="url(#paint4_linear_40_747)"/>
<path d="M176.183 72.2779C176.183 72.2779 176.183 108.192 158.182 120.538H110.93C92.9293 108.192 92.9293 72.2779 92.9293 72.2779C92.9293 43.9953 103.955 25.4768 114.643 14.2536C121.506 6.95843 128.256 2.69359 131.856 0.673397C133.544 -0.224466 135.569 -0.224466 137.256 0.673397C140.857 2.69359 147.607 6.95843 154.47 14.2536C165.158 25.4768 176.183 43.9953 176.183 72.2779Z" fill="url(#paint5_linear_40_747)"/>
<path d="M158.182 120.538L154.807 126.15H114.305L110.93 120.538H158.182Z" fill="url(#paint6_linear_40_747)"/>
<path d="M133.431 149.719C132.081 149.719 130.956 148.596 130.956 147.249V93.8266C130.956 92.4798 132.081 91.3575 133.431 91.3575C134.781 91.3575 135.906 92.4798 135.906 93.8266V147.137C135.906 148.596 134.781 149.719 133.431 149.719Z" fill="white"/>
<path d="M154.47 14.2536C154.357 14.1413 154.245 14.0291 154.02 13.9169C150.87 11.6722 145.919 10.2132 141.757 9.42755C137.031 8.41746 132.081 8.41746 127.243 9.42755C123.081 10.3254 118.13 11.6722 114.98 13.9169C114.868 14.0291 114.643 14.1413 114.53 14.2536C121.506 6.95843 128.256 2.69359 131.856 0.673397C133.544 -0.224466 135.569 -0.224466 137.256 0.673397C140.857 2.69359 147.607 6.95843 154.47 14.2536Z" fill="white"/>
<path d="M134.331 71.4922C145.018 71.4922 153.682 62.8495 153.682 52.1882C153.682 41.5269 145.018 32.8842 134.331 32.8842C123.644 32.8842 114.98 41.5269 114.98 52.1882C114.98 62.8495 123.644 71.4922 134.331 71.4922Z" fill="white"/>
<path opacity="0.19" d="M142.53 55.7532C142.53 56.6368 142.065 57.4273 141.322 57.8458L135.142 61.2869C134.399 61.7054 133.562 61.7054 132.819 61.2869L126.639 57.8458C125.896 57.4273 125.431 56.6368 125.431 55.7532V48.1736C125.431 47.3365 125.896 46.546 126.639 46.1275L132.819 42.6399C133.562 42.2214 134.399 42.2214 135.142 42.6399L141.322 46.1275C142.065 46.546 142.53 47.9875 142.53 48.8246V48.1736C142.53 48.8246 142.297 49.9871 142.948 49.9871H146.2C146.99 49.9871 147.548 49.1966 147.315 48.4526C145.364 42.2679 139.324 37.2923 132.401 38.0828C125.942 38.7803 120.785 43.942 120.088 50.3591C119.159 58.7758 125.71 65.8905 133.98 65.8905C140.253 65.8905 145.55 61.1474 147.315 55.4742C147.548 54.7302 146.99 53.9397 146.2 53.9397H142.297C141.647 53.9397 142.576 55.0557 142.576 55.7067V55.7532H142.53Z" fill="#6480FA"/>
<path d="M140.392 54.8697C140.392 55.5207 140.021 56.1252 139.463 56.4507L134.77 59.1013C134.213 59.4268 133.562 59.4268 133.005 59.1013L128.312 56.4507C127.754 56.1252 127.383 55.5207 127.383 54.8697V49.057C127.383 48.406 127.754 47.8015 128.312 47.476L133.005 44.8254C133.562 44.4999 134.213 44.4999 134.77 44.8254L139.463 47.476C140.021 47.8015 140.392 48.406 140.392 49.057C140.392 49.5685 140.81 49.9406 141.275 49.9406H143.134C143.738 49.9406 144.156 49.336 143.97 48.778C142.53 44.0814 137.93 40.8263 132.633 41.3844C127.754 41.8959 123.805 45.8485 123.247 50.7311C122.551 57.1482 127.522 62.5424 133.795 62.5424C138.58 62.5424 142.576 59.3803 143.923 55.0557C144.109 54.4512 143.691 53.8931 143.087 53.8931H141.229C140.81 53.9396 140.392 54.3117 140.392 54.8697Z" fill="#6480FA"/>
<path d="M133.423 52.5911V55.7997C133.423 56.0787 133.144 56.2647 132.865 56.1252L130.217 54.6371C130.078 54.5906 130.031 54.4511 130.031 54.3116V51.0565C130.031 50.7775 130.356 50.5915 130.589 50.731L133.237 52.2191C133.376 52.3586 133.423 52.4516 133.423 52.5911Z" fill="#6480FA"/>
<path d="M136.675 49.894L134.027 51.3821C133.934 51.4286 133.795 51.4286 133.655 51.3821L131.007 49.894C130.774 49.7545 130.774 49.3825 131.007 49.243L133.655 47.755C133.748 47.7085 133.887 47.7085 134.027 47.755L136.675 49.243C136.954 49.3825 136.954 49.7545 136.675 49.894Z" fill="#6480FA"/>
<path d="M137.697 51.1031V54.3581C137.697 54.4976 137.604 54.5906 137.512 54.6836L134.863 56.1252C134.631 56.2647 134.306 56.0787 134.306 55.7997V52.5911C134.306 52.4516 134.352 52.3586 134.491 52.2656L137.14 50.7775C137.419 50.638 137.697 50.824 137.697 51.1031Z" fill="#6480FA"/>
<defs>
<linearGradient id="paint0_linear_40_747" x1="134.524" y1="58.2854" x2="134.524" y2="165.08" gradientUnits="userSpaceOnUse">
<stop offset="0.6319" stop-color="#6FC6FD"/>
<stop offset="1" stop-color="#04032F" stop-opacity="0"/>
</linearGradient>
<linearGradient id="paint1_linear_40_747" x1="134.524" y1="130.904" x2="134.524" y2="186.751" gradientUnits="userSpaceOnUse">
<stop stop-color="#6FC6FD"/>
<stop offset="0.6636" stop-color="#6F96FD" stop-opacity="0.3"/>
<stop offset="1" stop-color="#04032F" stop-opacity="0"/>
</linearGradient>
<linearGradient id="paint2_linear_40_747" x1="98.884" y1="103.216" x2="82.553" y2="133.465" gradientUnits="userSpaceOnUse">
<stop stop-color="#6F89FD"/>
<stop offset="1" stop-color="#6FCAFD"/>
</linearGradient>
<linearGradient id="paint3_linear_40_747" x1="165.314" y1="97.9843" x2="188.753" y2="134.296" gradientUnits="userSpaceOnUse">
<stop stop-color="#6F89FD"/>
<stop offset="1" stop-color="#6FCAFD"/>
</linearGradient>
<linearGradient id="paint4_linear_40_747" x1="134.524" y1="156.885" x2="134.524" y2="118.289" gradientUnits="userSpaceOnUse">
<stop stop-color="#6F89FD"/>
<stop offset="1" stop-color="#6FCAFD"/>
</linearGradient>
<linearGradient id="paint5_linear_40_747" x1="134.52" y1="10.0213" x2="134.52" y2="119.852" gradientUnits="userSpaceOnUse">
<stop stop-color="#6F89FD"/>
<stop offset="1" stop-color="#6FCAFD"/>
</linearGradient>
<linearGradient id="paint6_linear_40_747" x1="134.524" y1="117.15" x2="134.524" y2="160.748" gradientUnits="userSpaceOnUse">
<stop stop-color="#6F89FD"/>
<stop offset="1" stop-color="#6FCAFD"/>
</linearGradient>
</defs>
</svg>
