<svg width="348" height="186" viewBox="0 0 348 186" fill="none" xmlns="http://www.w3.org/2000/svg">
<g clip-path="url(#clip0_40_968)">
<path d="M156.224 82.0146L147.004 110.005H140.051L133.854 91.0437L127.506 110.155H120.553L111.333 82.1651H118.134L124.483 101.879L131.133 82.1651H137.179L143.679 102.029L150.178 82.1651H156.224V82.0146ZM181.768 104.888V110.155H160.003V82.0146H181.314V87.2816H166.502V93.301H179.501V98.4175H166.502V104.888H181.768ZM211.393 98.1166C212.3 99.3204 212.753 100.825 212.753 102.481C212.753 104.888 211.846 106.845 209.882 108.199C207.917 109.553 205.196 110.155 201.568 110.155H187.058V82.0146H200.813C204.289 82.0146 206.859 82.6166 208.672 83.9709C210.486 85.3253 211.393 86.9806 211.393 89.2379C211.393 90.5923 211.091 91.7962 210.335 92.8496C209.73 93.903 208.824 94.8059 207.614 95.4078C209.126 96.0098 210.486 96.9127 211.393 98.1166ZM193.406 86.9806V93.602H199.906C201.568 93.602 202.778 93.301 203.533 92.6991C204.289 92.0971 204.743 91.3447 204.743 90.1408C204.743 89.0874 204.289 88.1845 203.533 87.7331C202.626 87.1311 201.417 86.9806 199.906 86.9806H193.406ZM204.894 104.437C205.801 103.835 206.254 103.083 206.254 101.879C206.254 99.6214 204.591 98.4175 201.115 98.4175H193.558V105.34H201.115C202.626 105.189 203.987 104.888 204.894 104.437ZM234.67 96.1603C236.03 97.5146 236.635 99.3204 236.635 101.427C236.635 103.083 236.181 104.587 235.274 105.942C234.368 107.296 233.158 108.35 231.345 109.252C229.531 110.155 227.415 110.456 224.845 110.456C222.88 110.456 220.915 110.155 218.95 109.704C216.986 109.252 215.474 108.5 214.114 107.447L216.683 102.481C217.741 103.233 218.95 103.835 220.462 104.286C221.822 104.738 223.334 104.888 224.845 104.888C226.508 104.888 227.717 104.587 228.775 103.985C229.682 103.384 230.135 102.481 230.135 101.277C230.135 99.0195 228.322 97.8156 224.845 97.8156H221.822V93.602L227.566 87.1311H215.625V81.8641H235.274V86.0777L228.926 93.301C231.496 93.903 233.461 94.8059 234.67 96.1603Z" fill="url(#paint0_linear_40_968)"/>
<path d="M250.692 122.194H97.276C93.4973 122.194 90.4743 119.185 90.4743 115.422V77.1991C90.4743 73.437 93.4973 70.4272 97.276 70.4272H250.54C254.319 70.4272 257.342 73.437 257.342 77.1991V115.573C257.493 119.185 254.47 122.194 250.692 122.194ZM97.276 72.0826C94.5553 72.0826 92.2881 74.3399 92.2881 77.0486V115.422C92.2881 118.131 94.5553 120.388 97.276 120.388H250.54C253.261 120.388 255.528 118.131 255.528 115.422V77.1991C255.528 74.4904 253.261 72.2331 250.54 72.2331H97.276V72.0826Z" fill="url(#paint1_linear_40_968)"/>
<g opacity="0.44">
<path opacity="0.44" d="M108.461 19.5631H82.9169C82.4635 9.17965 73.6968 0.902954 63.2676 0.902954C52.3849 0.902954 43.6183 9.63111 43.6183 20.4661C43.6183 31.301 52.5361 40.0292 63.2676 40.0292C73.9991 40.0292 82.6146 31.602 82.9169 21.068H108.461C110.426 21.068 112.089 22.7233 112.089 24.6797V71.1796H113.751V24.8301C113.6 21.9709 111.333 19.5631 108.461 19.5631ZM63.1165 37.7719C53.5941 37.7719 45.8855 30.0971 45.8855 20.6165C45.8855 11.136 53.5941 3.46121 63.1165 3.46121C72.6388 3.46121 80.3474 11.136 80.3474 20.6165C80.3474 30.0971 72.6388 37.7719 63.1165 37.7719Z" fill="#29ABE2"/>
</g>
<g opacity="0.44">
<path opacity="0.44" d="M152.445 132.879H113.6C111.635 132.879 109.972 131.223 109.972 129.267V121.442H108.31V129.267C108.31 132.126 110.577 134.384 113.449 134.384H152.143C154.108 134.384 155.77 136.039 155.77 137.995V163.126C155.77 165.083 154.108 166.738 152.143 166.738H99.5432C99.5432 166.587 99.5432 166.587 99.5432 166.437C99.5432 155.602 90.7766 146.874 79.8939 146.874C69.0112 146.874 60.2446 155.602 60.2446 166.437C60.2446 177.272 69.0112 186 79.8939 186C90.172 186 98.4852 178.175 99.5432 168.243H152.445C155.317 168.243 157.584 165.985 157.584 163.126V137.995C157.584 135.136 155.317 132.879 152.445 132.879ZM79.8939 183.592C70.3716 183.592 62.663 175.918 62.663 166.437C62.663 156.956 70.3716 149.282 79.8939 149.282C89.4163 149.282 97.1248 156.956 97.1248 166.437C97.1248 175.767 89.4163 183.592 79.8939 183.592Z" fill="#29ABE2"/>
</g>
<path d="M73.2434 79.7573C70.3716 79.7573 68.1043 82.0146 68.1043 84.8738V92.0971C68.1043 94.0534 66.4417 95.7087 64.4768 95.7087H33.6425C33.6425 95.5583 33.6425 95.5583 33.6425 95.4078C33.6425 86.3786 26.2362 78.8544 17.0162 78.8544C7.94728 78.8544 0.389862 86.2282 0.389862 95.4078C0.389862 104.437 7.79613 111.961 17.0162 111.961C25.4805 111.961 32.5845 105.641 33.4914 97.3641H64.3256C67.1975 97.3641 69.4647 95.1068 69.4647 92.2476V85.0243C69.4647 83.068 71.1273 81.4126 73.0922 81.4126H91.23V79.7573H73.2434ZM17.1673 109.403C9.45877 109.403 3.11053 103.083 3.11053 95.4078C3.11053 87.733 9.45877 81.4126 17.1673 81.4126C24.8759 81.4126 31.2241 87.733 31.2241 95.4078C31.2241 103.083 24.8759 109.403 17.1673 109.403ZM204.138 29.1942H187.965C187.512 20.6165 180.256 13.6942 171.49 13.6942C162.421 13.6942 154.864 21.068 154.864 30.2476C154.864 39.2767 162.27 46.801 171.49 46.801C180.408 46.801 187.663 39.7282 187.965 31H204.138C206.103 31 207.765 32.6553 207.765 34.6116V54.0243C207.765 55.9806 206.103 57.6359 204.138 57.6359H174.664C171.792 57.6359 169.525 59.8932 169.525 62.7524V70.5777H171.188V62.7524C171.188 60.7961 172.85 59.1408 174.815 59.1408H204.289C207.161 59.1408 209.428 56.8835 209.428 54.0243V34.4612C209.277 31.6019 207.01 29.1942 204.138 29.1942ZM171.339 44.2427C163.63 44.2427 157.282 37.9223 157.282 30.2476C157.282 22.5728 163.63 16.2524 171.339 16.2524C179.047 16.2524 185.396 22.5728 185.396 30.2476C185.396 37.9223 179.198 44.2427 171.339 44.2427ZM257.191 20.3155H273.062C273.364 30.8495 282.13 39.2767 292.711 39.2767C303.594 39.2767 312.36 30.3981 312.36 19.5631C312.36 8.72816 303.442 0 292.711 0C282.13 0 273.515 8.2767 273.062 18.6602H257.191C254.319 18.6602 252.052 20.9175 252.052 23.7767V50.2621C252.052 53.1214 254.319 55.3786 257.191 55.3786H287.572C289.537 55.3786 291.199 57.034 291.199 58.9903V74.9417C291.199 76.8981 289.537 78.5534 287.572 78.5534H256.586V80.2087H287.572C290.444 80.2087 292.711 77.9515 292.711 75.0922V58.9903C292.711 56.1311 290.444 53.8738 287.572 53.8738H257.191C255.226 53.8738 253.563 52.2184 253.563 50.2621V23.9272C253.563 21.8204 255.226 20.3155 257.191 20.3155ZM292.862 2.55825C302.384 2.55825 310.093 10.233 310.093 19.7136C310.093 29.1942 302.384 36.8689 292.862 36.8689C283.34 36.8689 275.631 29.1942 275.631 19.7136C275.631 10.233 283.34 2.55825 292.862 2.55825ZM239.809 141.005C228.926 141.005 220.16 149.733 220.16 160.568C220.16 160.718 220.16 160.718 220.16 160.869H207.161C205.196 160.869 203.533 159.214 203.533 157.257V121.141H201.871V157.408C201.871 160.267 204.138 162.524 207.01 162.524H220.16C221.067 172.456 229.531 180.282 239.809 180.282C250.692 180.282 259.458 171.553 259.458 160.718C259.458 149.733 250.692 141.005 239.809 141.005ZM239.809 177.723C230.287 177.723 222.578 170.049 222.578 160.568C222.578 151.087 230.287 143.413 239.809 143.413C249.331 143.413 257.04 151.087 257.04 160.568C257.04 170.049 249.331 177.723 239.809 177.723Z" fill="url(#paint2_linear_40_968)"/>
<g opacity="0.44">
<path opacity="0.44" d="M331.254 78.8544C322.185 78.8544 314.627 86.2282 314.627 95.4078C314.627 104.437 322.034 111.961 331.254 111.961C331.405 111.961 331.405 111.961 331.556 111.961V135.738C331.556 137.694 329.893 139.35 327.928 139.35H291.804C289.839 139.35 288.176 137.694 288.176 135.738V107.898C288.176 105.039 285.909 102.782 283.037 102.782H256.284V104.437H283.037C285.002 104.437 286.665 106.092 286.665 108.049V135.738C286.665 138.597 288.932 140.854 291.804 140.854H327.928C330.8 140.854 333.067 138.597 333.067 135.738V111.811C341.23 110.908 347.729 103.835 347.729 95.4078C347.88 86.3786 340.474 78.8544 331.254 78.8544ZM331.254 109.403C323.545 109.403 317.197 103.083 317.197 95.4078C317.197 87.733 323.545 81.4126 331.254 81.4126C338.962 81.4126 345.311 87.733 345.311 95.4078C345.311 103.083 339.113 109.403 331.254 109.403Z" fill="#29ABE2"/>
</g>
<path d="M180.105 30.398C179.954 28.8931 178.745 27.6893 177.233 27.6893V24.9805C177.233 24.6796 176.931 24.3786 176.629 24.2281C175.117 23.9271 172.548 22.8737 170.885 21.5194C170.583 21.3689 170.281 21.3689 170.13 21.5194C168.92 22.2718 165.444 24.0776 164.235 24.3786C163.932 24.5291 163.63 24.6796 163.63 25.131V31.1504C163.63 35.2135 166.653 38.6747 170.432 38.6747C172.094 38.6747 173.757 37.9223 174.966 36.7184L175.117 36.5679H180.105C180.559 36.5679 180.861 36.2669 180.861 35.8155V31.4514C180.861 30.398 180.105 30.398 180.105 30.398ZM178.745 30.398H176.024C176.175 29.6456 176.629 29.1941 177.385 29.1941C177.989 29.0436 178.594 29.6456 178.745 30.398ZM165.142 30.8495V25.432C166.653 24.83 169.374 23.4757 170.432 22.8737C172.094 24.2281 174.211 24.9805 175.873 25.432V28.1407C174.664 29.0436 174.664 30.398 174.664 30.398C174.211 30.398 173.908 30.699 173.908 31.1504V35.665C173.001 36.5679 171.792 37.0194 170.583 37.0194C167.56 36.8689 165.142 34.1601 165.142 30.8495ZM179.501 34.7621H175.269V31.7524H179.501V34.7621Z" fill="url(#paint3_linear_40_968)"/>
<path d="M245.704 160.117C245.704 157.107 243.285 154.699 240.262 154.699C237.239 154.699 234.821 157.107 234.821 160.117C234.821 163.126 237.239 165.534 240.262 165.534C243.285 165.534 245.704 163.126 245.704 160.117ZM244.041 160.117C244.041 162.223 242.378 163.879 240.262 163.879C238.146 163.879 236.484 162.223 236.484 160.117C236.484 158.01 238.146 156.354 240.262 156.354C242.378 156.505 244.041 158.16 244.041 160.117ZM241.623 160.117C241.623 160.718 241.018 161.32 240.413 161.32C239.809 161.32 239.204 160.718 239.204 160.117C239.204 159.515 239.809 158.913 240.413 158.913C241.018 158.913 241.623 159.515 241.623 160.117ZM252.052 156.956C252.052 156.806 252.052 156.505 251.901 156.354L249.482 152.141C249.331 151.689 248.727 151.689 248.424 151.84L246.913 152.743C246.006 151.99 244.797 151.238 243.588 150.937V148.981C243.588 148.529 243.285 148.228 242.832 148.228H237.844C237.391 148.228 237.088 148.529 237.088 148.981V150.636C235.879 151.087 234.821 151.689 233.763 152.442L232.251 151.539C231.798 151.388 231.345 151.388 231.193 151.84L228.775 156.053C228.624 156.204 228.624 156.505 228.624 156.655C228.624 156.806 228.775 157.107 229.077 157.107L230.589 158.01C230.438 158.612 230.438 159.214 230.438 159.816C230.438 160.417 230.438 161.019 230.589 161.621L229.077 162.524C228.926 162.675 228.775 162.825 228.624 162.976C228.624 163.126 228.624 163.427 228.775 163.578L231.193 167.791C231.345 168.243 231.949 168.243 232.251 168.092L233.763 167.189C234.67 167.942 235.879 168.694 237.088 168.995V170.65C237.088 171.102 237.391 171.403 237.844 171.403H242.832C243.285 171.403 243.588 171.102 243.588 170.65V168.995C244.797 168.544 245.855 167.942 246.913 167.189L248.424 168.092C248.878 168.243 249.331 168.243 249.482 167.791L251.901 163.578C252.052 163.427 252.052 163.126 252.052 162.976C252.052 162.825 251.901 162.524 251.598 162.524L250.087 161.621C250.238 161.019 250.238 160.417 250.238 159.816C250.238 159.214 250.238 158.612 250.087 158.01L251.598 157.107C251.901 157.408 252.052 157.107 252.052 156.956ZM248.878 163.126L250.087 163.879L248.424 166.738L247.064 165.985C246.762 165.835 246.308 165.835 246.157 166.136C245.099 167.189 243.89 167.791 242.53 168.243C242.227 168.393 241.925 168.694 241.925 168.995V170.5H238.6V168.995C238.6 168.694 238.297 168.243 237.995 168.243C236.635 167.791 235.426 167.189 234.368 166.136C234.065 165.835 233.763 165.835 233.461 165.985L232.1 166.738L230.438 163.879L231.647 163.126C231.949 162.976 232.1 162.524 232.1 162.223C231.949 161.621 231.798 160.869 231.798 160.117C231.798 159.364 231.949 158.762 232.1 158.01C232.251 157.709 232.1 157.257 231.647 157.107L230.438 156.354L232.1 153.495L233.461 154.248C233.763 154.398 234.216 154.398 234.368 154.097C235.426 153.044 236.635 152.442 237.995 151.99C238.297 151.84 238.6 151.539 238.6 151.238V149.733H241.925V151.238C241.925 151.539 242.227 151.99 242.53 151.99C243.89 152.442 245.099 153.044 246.157 154.097C246.459 154.398 246.762 154.398 247.064 154.248L248.424 153.495L250.087 156.354L248.878 157.107C248.575 157.257 248.424 157.709 248.424 158.01C248.575 158.612 248.727 159.364 248.727 160.117C248.727 160.869 248.575 161.471 248.424 162.223C248.424 162.675 248.575 162.976 248.878 163.126Z" fill="url(#paint4_linear_40_968)"/>
<path fill-rule="evenodd" clip-rule="evenodd" d="M26.8408 95.4078L20.6437 101.578L19.1323 100.073L23.8179 95.4078L19.1323 90.7427L20.6437 89.2379L26.8408 95.4078ZM10.2145 95.4078L14.9001 100.073L13.3886 101.578L7.19153 95.4078L13.3886 89.2379L14.9001 90.7427L10.2145 95.4078Z" fill="url(#paint5_linear_40_968)"/>
</g>
<defs>
<linearGradient id="paint0_linear_40_968" x1="173.982" y1="69.3117" x2="173.982" y2="116.419" gradientUnits="userSpaceOnUse">
<stop stop-color="#6F89FD"/>
<stop offset="1" stop-color="#6FCAFD"/>
</linearGradient>
<linearGradient id="paint1_linear_40_968" x1="173.564" y1="78.2584" x2="174.673" y2="126.622" gradientUnits="userSpaceOnUse">
<stop stop-color="#6F89FD"/>
<stop offset="1" stop-color="#6FCAFD"/>
</linearGradient>
<linearGradient id="paint2_linear_40_968" x1="153.305" y1="50.3961" x2="223.42" y2="199.327" gradientUnits="userSpaceOnUse">
<stop stop-color="#6F89FD"/>
<stop offset="1" stop-color="#6FCAFD"/>
</linearGradient>
<linearGradient id="paint3_linear_40_968" x1="167.723" y1="59.3925" x2="176.14" y2="5.59056" gradientUnits="userSpaceOnUse">
<stop stop-color="#6F89FD"/>
<stop offset="1" stop-color="#6FCAFD"/>
</linearGradient>
<linearGradient id="paint4_linear_40_968" x1="243.525" y1="200.569" x2="239.699" y2="151.387" gradientUnits="userSpaceOnUse">
<stop stop-color="#6F89FD"/>
<stop offset="1" stop-color="#6FCAFD"/>
</linearGradient>
<linearGradient id="paint5_linear_40_968" x1="7.20921" y1="95.3832" x2="26.7869" y2="95.3832" gradientUnits="userSpaceOnUse">
<stop stop-color="#6F89FD"/>
<stop offset="1" stop-color="#6FCAFD"/>
</linearGradient>
<clipPath id="clip0_40_968">
<rect width="347.339" height="186" fill="white" transform="translate(0.541016)"/>
</clipPath>
</defs>
</svg>
