<svg width="325" height="189" viewBox="0 0 325 189" fill="none" xmlns="http://www.w3.org/2000/svg">
<g clip-path="url(#clip0_40_796)">
<path d="M311.003 0H14.012V142.29H311.003V0Z" fill="url(#paint0_linear_40_796)"/>
<path opacity="0.28" d="M199.12 112.632H28.5846C26.7781 112.632 25.3329 111.191 25.3329 109.389V3.7224C25.3329 1.92126 26.7781 0.480347 28.5846 0.480347H198.999C200.806 0.480347 202.251 1.92126 202.251 3.7224V109.389C202.251 111.191 200.806 112.632 199.12 112.632Z" fill="url(#paint1_linear_40_796)"/>
<path d="M58.091 105.307H36.0515C34.9676 105.307 34.0042 104.466 34.0042 103.266V85.3742C34.0042 84.2935 34.8472 83.3329 36.0515 83.3329H58.091C59.175 83.3329 60.1384 84.1734 60.1384 85.3742V103.266C60.1384 104.466 59.175 105.307 58.091 105.307Z" fill="white"/>
<path d="M43.0367 95.8208H37.3763C37.015 95.8208 36.7741 95.5807 36.7741 95.2205V93.5394C36.7741 93.1792 37.015 92.939 37.3763 92.939H43.0367C43.398 92.939 43.6389 93.1792 43.6389 93.5394V95.2205C43.6389 95.5807 43.398 95.8208 43.0367 95.8208Z" fill="#6F89FD"/>
<path d="M96.9914 105.667H66.401C65.7989 105.667 65.1967 105.187 65.1967 104.466V78.1696C65.1967 77.5693 65.6784 76.9689 66.401 76.9689H96.8709C97.4731 76.9689 98.0753 77.4492 98.0753 78.1696V104.466C98.0753 105.187 97.5936 105.667 96.9914 105.667Z" fill="white"/>
<path d="M75.0723 82.4923H68.6893C68.2075 82.4923 67.7258 82.1321 67.7258 81.5317V80.6912C67.7258 80.2109 68.0871 79.7306 68.6893 79.7306H75.0723C75.554 79.7306 76.0358 80.0908 76.0358 80.6912V81.5317C75.9154 82.012 75.554 82.4923 75.0723 82.4923Z" fill="#6F89FD"/>
<path d="M76.8788 101.584H75.7949C75.1927 101.584 74.711 101.104 74.711 100.504V93.0591C74.711 92.4587 75.1927 91.9784 75.7949 91.9784H76.8788C77.481 91.9784 77.9627 92.4587 77.9627 93.0591V100.504C77.9627 101.104 77.481 101.584 76.8788 101.584Z" fill="#6F89FD"/>
<path d="M82.1779 101.584H81.094C80.4919 101.584 80.0101 101.104 80.0101 100.504V88.9764C80.0101 88.3761 80.4919 87.8958 81.094 87.8958H82.1779C82.7801 87.8958 83.2619 88.3761 83.2619 88.9764V100.504C83.2619 101.104 82.7801 101.584 82.1779 101.584Z" fill="#6F89FD"/>
<path d="M87.4771 101.585H86.3932C85.791 101.585 85.3092 101.104 85.3092 100.504V84.8939C85.3092 84.2935 85.791 83.8132 86.3932 83.8132H87.4771C88.0792 83.8132 88.561 84.2935 88.561 84.8939V100.624C88.561 101.104 88.0792 101.585 87.4771 101.585Z" fill="#6F89FD"/>
<path d="M139.143 69.5242H35.6902C34.8472 69.5242 34.1246 68.8038 34.1246 67.9632V9.72627C34.1246 8.88574 34.8472 8.16528 35.6902 8.16528H139.143C139.987 8.16528 140.709 8.88574 140.709 9.72627V68.0833C140.709 68.9239 139.987 69.5242 139.143 69.5242Z" fill="white"/>
<path d="M84.1049 45.509C78.9262 45.509 77.3606 42.2669 75.7949 39.1449C74.1088 35.5426 72.4228 32.3006 65.7989 32.3006C53.1532 32.3006 48.3359 44.9086 48.2154 45.0286L46.6498 44.4283C46.6498 44.3082 51.9489 30.6195 65.6784 30.6195C73.3862 30.6195 75.4336 34.8222 77.2401 38.4245C78.6853 41.4264 79.8897 43.8279 84.1049 43.8279C88.3201 43.8279 90.9697 40.2256 93.9805 36.0229C97.4731 31.0998 101.568 25.5763 109.155 25.5763C114.334 25.5763 117.706 26.5369 120.356 27.3774C124.691 28.6983 127.582 29.5388 135.41 25.5763L136.133 27.0172C127.582 31.2199 124.21 30.2593 119.754 28.8184C117.104 27.9778 114.093 27.0172 109.035 27.0172C102.291 27.0172 98.6775 31.9403 95.3053 36.7434C92.174 41.4264 89.1631 45.509 84.1049 45.509Z" fill="#6F89FD"/>
<path d="M110.721 31.7001C113.648 31.7001 116.02 29.3347 116.02 26.4168C116.02 23.4989 113.648 21.1334 110.721 21.1334C107.794 21.1334 105.422 23.4989 105.422 26.4168C105.422 29.3347 107.794 31.7001 110.721 31.7001Z" fill="white" stroke="#6F89FD" stroke-miterlimit="10"/>
<path d="M192.375 60.9988H147.815C147.213 60.9988 146.61 60.5185 146.61 59.798V9.24593C146.61 8.64555 147.092 8.04517 147.815 8.04517H192.375C192.978 8.04517 193.58 8.52547 193.58 9.24593V59.798C193.58 60.5185 192.978 60.9988 192.375 60.9988Z" fill="white"/>
<path d="M160.942 18.1316H151.066C150.585 18.1316 150.103 17.7714 150.103 17.171V14.049C150.103 13.5687 150.464 13.0884 151.066 13.0884H160.942C161.424 13.0884 161.906 13.4486 161.906 14.049V17.171C161.906 17.7714 161.424 18.1316 160.942 18.1316Z" fill="#6F89FD"/>
<path d="M163.712 53.434H161.303C160.701 53.434 160.219 52.9537 160.219 52.3533V36.7434C160.219 36.143 160.701 35.6627 161.303 35.6627H163.712C164.314 35.6627 164.796 36.143 164.796 36.7434V52.3533C164.796 52.9537 164.314 53.434 163.712 53.434Z" fill="#6F89FD"/>
<path d="M171.299 53.434H168.891C168.289 53.434 167.807 52.9537 167.807 52.3533V29.2987C167.807 28.6983 168.289 28.218 168.891 28.218H171.299C171.902 28.218 172.383 28.6983 172.383 29.2987V52.3533C172.263 52.9537 171.902 53.434 171.299 53.434Z" fill="#6F89FD"/>
<path d="M178.887 53.434H176.478C175.876 53.434 175.394 52.9537 175.394 52.3533V21.7339C175.394 21.1335 175.876 20.6532 176.478 20.6532H178.887C179.489 20.6532 179.971 21.1335 179.971 21.7339V52.3533C179.85 52.9537 179.369 53.434 178.887 53.434Z" fill="#6F89FD"/>
<path d="M56.6458 167.746H4.1364C2.32989 167.746 0.884674 166.306 0.884674 164.504V134.005C0.884674 132.204 2.32989 130.763 4.1364 130.763H56.6458C58.4524 130.763 59.8976 132.204 59.8976 134.005V164.504C59.8976 166.306 58.4524 167.746 56.6458 167.746Z" fill="url(#paint2_linear_40_796)"/>
<path d="M320.879 147.093H273.187C271.381 147.093 269.935 145.652 269.935 143.851V115.753C269.935 113.952 271.381 112.511 273.187 112.511H320.879C322.686 112.511 324.131 113.952 324.131 115.753V143.971C324.131 145.652 322.686 147.093 320.879 147.093Z" fill="url(#paint3_linear_40_796)"/>
<path d="M24.3694 147.334L20.0338 148.895C19.3112 149.135 19.3112 150.215 20.0338 150.456L24.3694 152.017C24.7307 152.137 24.9716 152.497 24.9716 152.857V153.698C24.9716 154.298 24.3694 154.658 23.8877 154.418L15.4572 151.176C15.0959 151.056 14.9755 150.696 14.9755 150.456V148.895C14.9755 148.534 15.2164 148.294 15.4572 148.174L23.8877 144.932C24.4898 144.692 24.9716 145.172 24.9716 145.653V146.493C24.8511 146.853 24.6103 147.213 24.3694 147.334Z" fill="white"/>
<path d="M33.0407 139.288H34.245C34.8472 139.288 35.2085 139.889 35.0881 140.369L28.5846 158.621C28.4642 158.981 28.1029 159.221 27.7416 159.221H26.5372C25.935 159.221 25.5737 158.621 25.6942 158.14L32.0772 139.889C32.4385 139.529 32.6794 139.288 33.0407 139.288Z" fill="white"/>
<path d="M45.9272 148.895V150.456C45.9272 150.816 45.6863 151.056 45.4454 151.176L37.015 154.418C36.4128 154.658 35.9311 154.178 35.9311 153.698V152.857C35.9311 152.497 36.172 152.137 36.5333 152.017L40.8689 150.456C41.5915 150.215 41.5915 149.135 40.8689 148.895L36.5333 147.334C36.172 147.213 35.9311 146.853 35.9311 146.493V145.652C35.9311 145.052 36.5333 144.692 37.015 144.932L45.4454 148.174C45.6863 148.174 45.9272 148.534 45.9272 148.895Z" fill="white"/>
<path d="M291.011 127.881L286.676 129.442C285.953 129.682 285.953 130.763 286.676 131.003L291.011 132.564C291.373 132.684 291.613 133.045 291.613 133.405V134.245C291.613 134.846 291.011 135.206 290.53 134.966L282.099 131.724C281.738 131.604 281.617 131.243 281.617 131.003V129.442C281.617 129.082 281.858 128.842 282.099 128.722L290.53 125.48C291.132 125.24 291.613 125.72 291.613 126.2V127.041C291.613 127.401 291.373 127.761 291.011 127.881Z" fill="white"/>
<path d="M299.803 119.836H301.007C301.61 119.836 301.971 120.436 301.85 120.917L295.467 139.168C295.347 139.529 294.986 139.769 294.624 139.769H293.42C292.818 139.769 292.457 139.168 292.577 138.688L298.96 120.437C299.08 120.076 299.442 119.836 299.803 119.836Z" fill="white"/>
<path d="M312.69 129.442V131.003C312.69 131.363 312.449 131.604 312.208 131.724L303.777 134.966C303.175 135.206 302.693 134.726 302.693 134.245V133.405C302.693 133.044 302.934 132.684 303.296 132.564L307.631 131.003C308.354 130.763 308.354 129.682 307.631 129.442L303.296 127.881C302.934 127.761 302.693 127.401 302.693 127.041V126.2C302.693 125.6 303.296 125.24 303.777 125.48L312.208 128.722C312.449 128.842 312.69 129.082 312.69 129.442Z" fill="white"/>
<g opacity="0.42">
<path opacity="0.42" d="M288.603 70.7249H256.928C255.122 70.7249 253.677 69.284 253.677 67.4828V52.9536C253.677 51.1525 255.122 49.7115 256.928 49.7115H288.603C290.409 49.7115 291.854 51.1525 291.854 52.9536V67.4828C291.854 69.284 290.409 70.7249 288.603 70.7249Z" fill="url(#paint4_linear_40_796)"/>
<g opacity="0.42">
<path opacity="0.42" d="M269.333 59.0775L266.804 60.0381C266.322 60.1582 266.443 60.7586 266.804 60.9988L269.333 61.9594C269.574 62.0794 269.694 62.1995 269.694 62.4397V62.92C269.694 63.2802 269.333 63.5204 269.092 63.4003L264.275 61.5991C264.034 61.4791 263.914 61.359 263.914 61.1188V60.0381C263.914 59.798 264.034 59.6779 264.275 59.5578L269.092 57.7567C269.454 57.6366 269.694 57.8768 269.694 58.237V58.7173C269.694 58.8374 269.574 59.0775 269.333 59.0775Z" fill="white"/>
<path opacity="0.42" d="M274.391 54.5146H275.114C275.475 54.5146 275.716 54.8749 275.596 55.115L271.862 65.6817C271.742 65.9219 271.621 66.042 271.381 66.042H270.658C270.297 66.042 270.056 65.6817 270.176 65.4416L273.91 54.8749C274.03 54.6347 274.151 54.5146 274.391 54.5146Z" fill="white"/>
<path opacity="0.42" d="M281.858 60.0382V60.9988C281.858 61.2389 281.738 61.359 281.497 61.4791L276.68 63.2802C276.318 63.4003 276.077 63.1602 276.077 62.7999V62.3196C276.077 62.0795 276.198 61.9594 276.439 61.8393L278.968 60.8787C279.45 60.7586 279.45 60.1583 278.968 59.9181L276.439 58.9575C276.198 58.8374 276.077 58.7173 276.077 58.4772V57.9969C276.077 57.6367 276.439 57.3965 276.68 57.5166L281.497 59.3177C281.738 59.678 281.858 59.798 281.858 60.0382Z" fill="white"/>
</g>
</g>
<g opacity="0.22">
<path opacity="0.22" d="M235.491 28.6982H215.981C214.174 28.6982 212.729 27.2573 212.729 25.4562V17.5311C212.729 15.73 214.174 14.2891 215.981 14.2891H235.491C237.298 14.2891 238.743 15.73 238.743 17.5311V25.4562C238.743 27.2573 237.298 28.6982 235.491 28.6982Z" fill="url(#paint5_linear_40_796)"/>
<g opacity="0.22">
<path opacity="0.22" d="M223.448 20.8933L221.761 21.4937C221.521 21.6138 221.521 21.974 221.761 22.0941L223.448 22.6945C223.568 22.6945 223.688 22.8146 223.688 23.0547V23.4149C223.688 23.6551 223.448 23.7752 223.207 23.7752L219.835 22.5744C219.714 22.5744 219.594 22.4543 219.594 22.2142V21.6138C219.594 21.4937 219.714 21.3737 219.835 21.2536L223.207 20.0528C223.448 19.9327 223.688 20.1729 223.688 20.413V20.7733C223.568 20.6532 223.568 20.7733 223.448 20.8933Z" fill="white"/>
<path opacity="0.22" d="M226.82 17.6512H227.301C227.542 17.6512 227.663 17.8914 227.663 18.1316L225.134 25.3361C225.134 25.4562 225.013 25.5763 224.772 25.5763H224.291C224.05 25.5763 223.929 25.3361 223.929 25.096L226.458 17.8914C226.579 17.7713 226.699 17.6512 226.82 17.6512Z" fill="white"/>
<path opacity="0.22" d="M231.878 21.4936V22.094C231.878 22.2141 231.758 22.3342 231.637 22.4543L228.265 23.655C228.024 23.7751 227.783 23.5349 227.783 23.2948V22.9346C227.783 22.8145 227.904 22.6944 228.024 22.5743L229.71 21.974C229.951 21.8539 229.951 21.4936 229.71 21.3736L228.024 20.7732C227.904 20.7732 227.783 20.6531 227.783 20.413V20.0527C227.783 19.8126 228.024 19.6925 228.265 19.6925L231.637 20.8933C231.758 21.2535 231.878 21.3736 231.878 21.4936Z" fill="white"/>
</g>
</g>
<path d="M204.539 185.878H120.597V189H204.539V185.878Z" fill="#282877"/>
<path d="M173.829 157.3H154.439V187.799H173.829V157.3Z" fill="#282877"/>
<path d="M244.764 57.5165H80.251V160.422H244.764V57.5165Z" fill="#282877"/>
<path d="M241.874 60.5184H83.1414V157.54H241.874V60.5184Z" fill="url(#paint6_linear_40_796)"/>
<g opacity="0.72">
<path opacity="0.72" d="M113.009 97.3819H93.6192C93.2579 97.3819 93.017 97.1417 93.017 96.7815V90.5375C93.017 90.1773 93.2579 89.9371 93.6192 89.9371H113.009C113.37 89.9371 113.611 90.1773 113.611 90.5375V96.7815C113.611 97.1417 113.37 97.3819 113.009 97.3819Z" fill="#0B0B33"/>
<path opacity="0.25" d="M113.009 75.528H93.6192C93.2579 75.528 93.017 75.2878 93.017 74.9276V68.6836C93.017 68.3234 93.2579 68.0833 93.6192 68.0833H113.009C113.37 68.0833 113.611 68.3234 113.611 68.6836V74.9276C113.611 75.2878 113.37 75.528 113.009 75.528Z" fill="white"/>
<path opacity="0.72" d="M113.009 86.4549H93.6192C93.2579 86.4549 93.017 86.2147 93.017 85.8545V79.6105C93.017 79.2503 93.2579 79.0101 93.6192 79.0101H113.009C113.37 79.0101 113.611 79.2503 113.611 79.6105V85.8545C113.611 86.2147 113.37 86.4549 113.009 86.4549Z" fill="#0B0B33"/>
<path opacity="0.25" d="M113.009 147.574H93.6192C93.2579 147.574 93.017 147.334 93.017 146.973V140.729C93.017 140.369 93.2579 140.129 93.6192 140.129H113.009C113.37 140.129 113.611 140.369 113.611 140.729V146.973C113.611 147.334 113.37 147.574 113.009 147.574Z" fill="white"/>
<path opacity="0.72" d="M113.009 108.429H93.6192C93.2579 108.429 93.017 108.189 93.017 107.828V101.585C93.017 101.224 93.2579 100.984 93.6192 100.984H113.009C113.37 100.984 113.611 101.224 113.611 101.585V107.828C113.611 108.189 113.37 108.429 113.009 108.429Z" fill="#0B0B33"/>
<path opacity="0.72" d="M155.643 97.3819H118.91C118.549 97.3819 118.308 97.1417 118.308 96.7815V68.6836C118.308 68.3234 118.549 68.0833 118.91 68.0833H155.643C156.004 68.0833 156.245 68.3234 156.245 68.6836V96.7815C156.245 97.1417 155.884 97.3819 155.643 97.3819Z" fill="#0B0B33"/>
<path opacity="0.25" d="M198.397 72.406H161.303C160.942 72.406 160.701 72.1658 160.701 71.8056V68.6836C160.701 68.3234 160.942 68.0833 161.303 68.0833H198.397C198.759 68.0833 198.999 68.3234 198.999 68.6836V71.8056C198.999 72.0458 198.759 72.406 198.397 72.406Z" fill="white"/>
<path opacity="0.72" d="M198.397 96.061H161.303C160.942 96.061 160.701 95.8209 160.701 95.4606V92.4587C160.701 92.0985 160.942 91.8583 161.303 91.8583H198.397C198.759 91.8583 198.999 92.0985 198.999 92.4587V95.5807C198.999 95.8209 198.759 96.061 198.397 96.061Z" fill="#0B0B33"/>
<path opacity="0.25" d="M198.397 85.134H161.303C160.942 85.134 160.701 84.8939 160.701 84.5336V81.4117C160.701 81.0514 160.942 80.8113 161.303 80.8113H198.397C198.759 80.8113 198.999 81.0514 198.999 81.4117V84.5336C198.999 84.8939 198.759 85.134 198.397 85.134Z" fill="white"/>
<path opacity="0.25" d="M232.962 110.23H161.303C160.942 110.23 160.701 109.99 160.701 109.63V99.7834C160.701 99.4231 160.942 99.183 161.303 99.183H232.962C233.323 99.183 233.564 99.4231 233.564 99.7834V109.63C233.444 109.99 233.203 110.23 232.962 110.23Z" fill="white"/>
<path opacity="0.72" d="M232.962 122.958H161.303C160.942 122.958 160.701 122.718 160.701 122.358V112.511C160.701 112.151 160.942 111.911 161.303 111.911H232.962C233.323 111.911 233.564 112.151 233.564 112.511V122.358C233.444 122.718 233.203 122.958 232.962 122.958Z" fill="#0B0B33"/>
<path opacity="0.72" d="M232.962 135.806H161.303C160.942 135.806 160.701 135.566 160.701 135.206V125.36C160.701 124.999 160.942 124.759 161.303 124.759H232.962C233.323 124.759 233.564 124.999 233.564 125.36V135.206C233.444 135.566 233.203 135.806 232.962 135.806Z" fill="#0B0B33"/>
<path opacity="0.72" d="M232.962 148.654H161.303C160.942 148.654 160.701 148.414 160.701 148.054V138.208C160.701 137.848 160.942 137.607 161.303 137.607H232.962C233.323 137.607 233.564 137.848 233.564 138.208V148.054C233.444 148.414 233.203 148.654 232.962 148.654Z" fill="#0B0B33"/>
<path opacity="0.72" d="M155.643 106.147H118.91C118.549 106.147 118.308 105.907 118.308 105.547V101.104C118.308 100.744 118.549 100.504 118.91 100.504H155.643C156.004 100.504 156.245 100.744 156.245 101.104V105.667C156.245 105.907 155.884 106.147 155.643 106.147Z" fill="#0B0B33"/>
<path opacity="0.25" d="M155.643 131.724H118.91C118.549 131.724 118.308 131.483 118.308 131.123V110.47C118.308 110.11 118.549 109.87 118.91 109.87H155.643C156.004 109.87 156.245 110.11 156.245 110.47V131.123C156.245 131.483 155.884 131.724 155.643 131.724Z" fill="white"/>
<path opacity="0.72" d="M155.643 148.654H118.91C118.549 148.654 118.308 148.414 118.308 148.054V135.686C118.308 135.326 118.549 135.086 118.91 135.086H155.643C156.004 135.086 156.245 135.326 156.245 135.686V148.054C156.245 148.414 155.884 148.654 155.643 148.654Z" fill="#0B0B33"/>
</g>
<path opacity="0.19" d="M226.722 85.1167C226.722 85.9685 226.274 86.7307 225.557 87.1342L219.599 90.4519C218.882 90.8554 218.076 90.8554 217.359 90.4519L211.401 87.1342C210.684 86.7307 210.237 85.9685 210.237 85.1167V77.8088C210.237 77.0018 210.684 76.2396 211.401 75.8361L217.359 72.4736C218.076 72.0701 218.882 72.0701 219.599 72.4736L225.557 75.8361C226.274 76.2396 226.722 77.6294 226.722 78.4365V77.8088C226.722 78.4365 226.498 79.5573 227.125 79.5573H230.261C231.022 79.5573 231.56 78.7951 231.336 78.0778C229.454 72.1149 223.631 67.3177 216.956 68.0798C210.729 68.7524 205.757 73.7289 205.085 79.916C204.189 88.0309 210.505 94.8905 218.479 94.8905C224.527 94.8905 229.634 90.3174 231.336 84.8477C231.56 84.1304 231.022 83.3682 230.261 83.3682H226.498C225.871 83.3682 226.767 84.4442 226.767 85.0719V85.1167H226.722Z" fill="white"/>
<path d="M224.661 84.2649C224.661 84.8926 224.303 85.4754 223.765 85.7893L219.241 88.3448C218.703 88.6586 218.076 88.6586 217.538 88.3448L213.014 85.7893C212.476 85.4754 212.118 84.8926 212.118 84.2649V78.6607C212.118 78.033 212.476 77.4502 213.014 77.1363L217.538 74.5808C218.076 74.267 218.703 74.267 219.241 74.5808L223.765 77.1363C224.303 77.4502 224.661 78.033 224.661 78.6607C224.661 79.1539 225.064 79.5125 225.512 79.5125H227.304C227.886 79.5125 228.29 78.9297 228.11 78.3917C226.722 73.8635 222.287 70.7251 217.18 71.2631C212.476 71.7563 208.669 75.5671 208.131 80.2747C207.459 86.4618 212.252 91.6625 218.3 91.6625C222.914 91.6625 226.767 88.6138 228.066 84.4442C228.245 83.8614 227.842 83.3234 227.259 83.3234H225.467C225.064 83.3682 224.661 83.7269 224.661 84.2649Z" fill="white"/>
<path d="M217.942 82.0681V85.1616C217.942 85.4306 217.673 85.61 217.404 85.4755L214.851 84.0408C214.716 83.9959 214.671 83.8614 214.671 83.7269V80.5886C214.671 80.3196 214.985 80.1402 215.209 80.2747L217.762 81.7094C217.897 81.8439 217.942 81.9336 217.942 82.0681Z" fill="white"/>
<path d="M221.077 79.4677L218.524 80.9024C218.434 80.9472 218.3 80.9472 218.166 80.9024L215.612 79.4677C215.388 79.3332 215.388 78.9745 215.612 78.84L218.166 77.4053C218.255 77.3605 218.39 77.3605 218.524 77.4053L221.077 78.84C221.346 78.9745 221.346 79.3332 221.077 79.4677Z" fill="white"/>
<path d="M222.063 80.6334V83.7717C222.063 83.9062 221.973 83.9959 221.884 84.0856L219.33 85.4754C219.106 85.6099 218.793 85.4306 218.793 85.1616V82.0681C218.793 81.9336 218.838 81.8439 218.972 81.7542L221.525 80.3195C221.794 80.185 222.063 80.3644 222.063 80.6334Z" fill="white"/>
</g>
<defs>
<linearGradient id="paint0_linear_40_796" x1="162.504" y1="139.799" x2="162.504" y2="3.68166" gradientUnits="userSpaceOnUse">
<stop stop-color="#6F89FD" stop-opacity="0.6"/>
<stop offset="0.7658" stop-color="#04032F" stop-opacity="0"/>
</linearGradient>
<linearGradient id="paint1_linear_40_796" x1="215.872" y1="173.485" x2="114.652" y2="56.7681" gradientUnits="userSpaceOnUse">
<stop stop-color="#6F89FD"/>
<stop offset="1" stop-color="#6FCAFD"/>
</linearGradient>
<linearGradient id="paint2_linear_40_796" x1="1.83225" y1="121.988" x2="66.2428" y2="183.898" gradientUnits="userSpaceOnUse">
<stop stop-color="#6F89FD"/>
<stop offset="1" stop-color="#6FCAFD"/>
</linearGradient>
<linearGradient id="paint3_linear_40_796" x1="270.764" y1="104.716" x2="330.1" y2="161.749" gradientUnits="userSpaceOnUse">
<stop stop-color="#6F89FD"/>
<stop offset="1" stop-color="#6FCAFD"/>
</linearGradient>
<linearGradient id="paint4_linear_40_796" x1="255.656" y1="43.8379" x2="294.376" y2="81.0548" gradientUnits="userSpaceOnUse">
<stop stop-color="#6F89FD"/>
<stop offset="1" stop-color="#6FCAFD"/>
</linearGradient>
<linearGradient id="paint5_linear_40_796" x1="214.465" y1="10.8035" x2="239.966" y2="35.3143" gradientUnits="userSpaceOnUse">
<stop stop-color="#6F89FD"/>
<stop offset="1" stop-color="#6FCAFD"/>
</linearGradient>
<linearGradient id="paint6_linear_40_796" x1="193.722" y1="109.037" x2="352.513" y2="109.037" gradientUnits="userSpaceOnUse">
<stop stop-color="#6F89FD"/>
<stop offset="1" stop-color="#6FCAFD"/>
</linearGradient>
<clipPath id="clip0_40_796">
<rect width="323.246" height="189" fill="white" transform="translate(0.884674)"/>
</clipPath>
</defs>
</svg>
