<svg width="41" height="41" viewBox="0 0 41 41" fill="none" xmlns="http://www.w3.org/2000/svg">
<path d="M30.551 11.8C30.3577 11.5181 30.0377 11.3494 29.6958 11.3494H11.4427C11.1006 11.3494 10.7807 11.5179 10.5873 11.8L6.30723 18.0431C6.04588 18.4242 6.06814 18.9319 6.36185 19.2886L19.7685 35.5786C19.9656 35.818 20.2593 35.9567 20.5693 35.9567C20.8793 35.9567 21.173 35.818 21.3701 35.5786L34.7763 19.2886C35.0699 18.9319 35.0921 18.4242 34.8309 18.0432L30.551 11.8ZM19.5322 16.6636L14.7955 13.4236H19.5322V16.6636ZM21.6064 13.4236H26.3426L21.6064 16.6635V13.4236ZM19.5322 32.0272L9.35935 19.6665H19.5322V32.0272ZM21.6064 19.6666H31.7788L21.6064 32.0273V19.6666ZM32.0073 17.5924H23.9222L29.4263 13.8273L32.0073 17.5924ZM11.7122 13.8273L17.2161 17.5924H9.13104L11.7122 13.8273Z" fill="white"/>
<path d="M3.31872 17.5924H1.0371C0.464206 17.5924 0 18.0566 0 18.6295C0 19.2024 0.464206 19.6666 1.0371 19.6666H3.31872C3.89161 19.6666 4.35582 19.2024 4.35582 18.6295C4.35582 18.0566 3.89161 17.5924 3.31872 17.5924Z" fill="white"/>
<path d="M39.9629 17.5924H37.6813C37.1084 17.5924 36.6442 18.0566 36.6442 18.6295C36.6442 19.2024 37.1084 19.6666 37.6813 19.6666H39.9629C40.5358 19.6666 41 19.2024 41 18.6295C41 18.0566 40.5358 17.5924 39.9629 17.5924Z" fill="white"/>
<path d="M20.5691 9.39927C21.142 9.39927 21.6062 8.93493 21.6062 8.36217V6.08056C21.6062 5.50766 21.142 5.04346 20.5691 5.04346C19.9962 5.04346 19.532 5.50766 19.532 6.08056V8.36217C19.532 8.93493 19.9962 9.39927 20.5691 9.39927Z" fill="white"/>
<path d="M8.4276 10.1699C8.63019 10.3725 8.89554 10.4737 9.16104 10.4737C9.4264 10.4737 9.6919 10.3723 9.89434 10.17C10.2995 9.76501 10.2995 9.10832 9.89448 8.70344L8.28117 7.08985C7.87614 6.68482 7.21945 6.68469 6.81457 7.08971C6.40941 7.49473 6.40941 8.15142 6.81443 8.55631L8.4276 10.1699Z" fill="white"/>
<path d="M31.9773 10.4737C32.2426 10.4737 32.5081 10.3723 32.7107 10.1699L34.324 8.55643C34.729 8.15141 34.729 7.49471 34.3239 7.08983C33.919 6.68495 33.2623 6.68481 32.8573 7.08997L31.2438 8.70328C30.8388 9.1083 30.8388 9.76499 31.244 10.1699C31.4464 10.3725 31.7119 10.4737 31.9773 10.4737Z" fill="white"/>
</svg>
