<svg width="50" height="42" viewBox="0 0 50 42" fill="none" xmlns="http://www.w3.org/2000/svg">
<g clip-path="url(#clip0_41_1313)">
<path d="M32.2559 26.3083L31.2891 25.326C30.9766 25.0085 30.4785 25.0085 30.1758 25.326C29.8633 25.6435 29.8633 26.1496 30.1758 26.4572L31.1426 27.4395C31.2988 27.5983 31.5039 27.6777 31.6992 27.6777C31.8945 27.6777 32.0996 27.5983 32.2559 27.4395C32.5684 27.1319 32.5684 26.6259 32.2559 26.3083Z" fill="#6F89FD"/>
<path d="M22.9297 32.5397L21.9629 31.5574C21.6504 31.2399 21.1523 31.2399 20.8496 31.5574C20.5371 31.8749 20.5371 32.381 20.8496 32.6886L21.8164 33.6709C21.9727 33.8297 22.1777 33.909 22.373 33.909C22.5684 33.909 22.7734 33.8297 22.9297 33.6709C23.2422 33.3534 23.2422 32.8473 22.9297 32.5397Z" fill="#6F89FD"/>
<path d="M27.5781 29.4042L26.6113 28.4219C26.2988 28.1043 25.8008 28.1043 25.498 28.4219C25.1855 28.7394 25.1855 29.2454 25.498 29.553L26.4648 30.5354C26.6211 30.6941 26.8262 30.7735 27.0215 30.7735C27.2168 30.7735 27.4219 30.6941 27.5781 30.5354C27.8809 30.2278 27.8809 29.7118 27.5781 29.4042Z" fill="#6F89FD"/>
<path d="M40.7813 27.896C40.6445 27.2808 40.3418 26.7053 39.9121 26.229L38.7988 25.0879L29.0918 15.2149L27.3633 13.4586L26.2402 14.5898L28.3008 16.6835L38.1836 26.7549L38.7109 27.2907C38.877 27.4594 39.0137 27.6578 39.1113 27.8761C39.2383 28.154 39.2969 28.4616 39.2773 28.7791C39.248 29.3447 39.0039 29.8507 38.5645 30.2079C37.8027 30.843 36.6309 30.7537 35.8789 29.9896L34.1797 28.2631C33.8672 27.9456 33.3691 27.9456 33.0664 28.2631C32.7539 28.5806 32.7539 29.0867 33.0664 29.3943L34.0332 30.3766C34.4238 30.7735 34.6289 31.3093 34.5996 31.865C34.5703 32.4306 34.3262 32.9366 33.8867 33.2938C33.125 33.9289 31.9434 33.8396 31.2012 33.0755L29.502 31.349C29.1895 31.0315 28.6914 31.0315 28.3789 31.349C28.0664 31.6665 28.0664 32.1726 28.3789 32.4901L29.3457 33.4724C29.7266 33.8693 29.9414 34.4052 29.9121 34.9608C29.8828 35.5264 29.6289 36.0325 29.1992 36.3897C28.4375 37.0247 27.2559 36.9354 26.5137 36.1714L25.8203 35.4669L24.8535 34.4845C24.541 34.167 24.043 34.167 23.7402 34.4845C23.4277 34.8021 23.4277 35.3081 23.7402 35.6157L24.707 36.598C25.0879 36.985 25.3027 37.5308 25.2734 38.0864C25.2441 38.652 24.9902 39.1581 24.5605 39.5153C24.3848 39.6641 24.1797 39.7733 23.9648 39.8427C23.2715 40.0709 22.4414 39.8824 21.875 39.297L21.5527 38.9695C20.791 39.6542 20.2051 39.8725 20.2051 39.8725L20.752 40.4282C21.4746 41.1624 22.4316 41.5296 23.3691 41.5296C23.7598 41.5296 24.1504 41.47 24.5312 41.3311C24.9023 41.2021 25.2539 41.0037 25.5664 40.7457C26.3184 40.1106 26.7871 39.1878 26.8457 38.2055C27.9883 38.5925 29.2676 38.404 30.2148 37.6201C30.9668 36.9949 31.4258 36.0821 31.4941 35.0997C32.6465 35.5066 33.9453 35.328 34.9023 34.5242C35.6543 33.8991 36.1133 32.9763 36.1816 32.0039C37.334 32.4107 38.6328 32.2222 39.5801 31.4284C40.3516 30.7834 40.8105 29.8408 40.8594 28.8386C40.8789 28.531 40.8496 28.2135 40.7813 27.896ZM26.123 14.7188L26.2305 14.6097C26.1816 14.6394 26.1523 14.6692 26.123 14.7188ZM21.6895 7.32651C22.6172 7.10821 23.5937 7.0586 24.5508 7.19752C27.0117 6.56247 28.0762 6.76092 28.125 6.77085C26.4551 5.78851 24.4727 5.38169 22.5684 5.56029C21.7285 5.63967 20.9082 5.8282 20.1367 6.14572L17.6758 3.63532C15.7227 1.65081 13.125 0.559326 10.3516 0.559326C7.58789 0.559326 4.99023 1.65081 3.02734 3.63532C1.07422 5.61983 0 8.25923 0 11.0772C0 13.8853 1.07422 16.5247 3.02734 18.5192L9.6875 25.2863C10.4785 24.6314 11.2988 24.6513 11.2988 24.6513L9.29687 22.6172L4.14063 17.3781C2.48047 15.6912 1.57227 13.4586 1.57227 11.0772C1.57227 8.69582 2.48047 6.45332 4.14063 4.77641C5.80078 3.08958 7.99805 2.16678 10.3418 2.16678C12.6855 2.16678 14.8828 3.08958 16.543 4.77641L19.3848 7.66388C19.6191 7.90202 19.9805 7.96155 20.2832 7.82264C20.7324 7.60434 21.2012 7.43566 21.6895 7.32651Z" fill="#6F89FD"/>
<path d="M50 11.623C50 14.4311 48.9258 17.0705 46.9727 19.0649L39.9121 26.2389L38.7988 25.0978L45.8594 17.9238C49.2774 14.4509 49.2774 8.79505 45.8594 5.32215C42.4414 1.84926 36.875 1.84926 33.457 5.32215L31.0547 7.7631C31.6113 8.09054 32.1289 8.49737 32.6074 8.97365C32.9199 9.29117 32.9199 9.79722 32.6074 10.1048C32.2949 10.4223 31.7969 10.4223 31.4941 10.1048C29.1406 7.71349 25.3027 7.71349 22.9492 10.1048L18.1152 15.0165C17.3535 15.7904 17.3535 17.0407 18.1152 17.8047C18.877 18.5787 20.1074 18.5787 20.8594 17.8047L26.6504 11.9207C26.9629 11.6031 27.4609 11.6031 27.7637 11.9207C28.0664 12.2382 28.0762 12.7442 27.7637 13.0617L27.3535 13.4785L26.2305 14.6097C26.1816 14.6394 26.1426 14.6692 26.1231 14.7188L21.9629 18.9458C21.2793 19.6404 20.3711 19.9976 19.4727 19.9976C18.5742 19.9976 17.666 19.6503 16.9824 18.9458C15.6055 17.5467 15.6055 15.2844 16.9824 13.8853L21.8066 8.98357C22.6074 8.16992 23.5449 7.57457 24.541 7.19751C27.002 6.56247 28.0664 6.76092 28.1152 6.77084C28.5742 6.83038 29.0332 6.9296 29.4727 7.06852L32.3242 4.18106C36.3574 0.0830397 42.9297 0.0830397 46.9629 4.18106C48.9258 6.17549 50 8.81489 50 11.623Z" fill="#D2DBFF"/>
<path d="M21.4844 34.0083C20.8203 33.3335 19.9316 32.9565 18.9941 32.9565C18.7109 32.9565 18.4375 32.9862 18.1641 33.0557C18.1543 32.1527 17.8125 31.2597 17.1387 30.5651C16.543 29.9598 15.791 29.6225 15.0098 29.5431C15.5273 28.2532 15.2734 26.7052 14.2383 25.6634C13.4375 24.8497 12.3438 24.5124 11.3086 24.6414C11.3086 24.6414 10.4883 24.6314 9.69727 25.2764C9.66797 25.2962 9.63867 25.3161 9.60937 25.3359C9.48242 25.4352 9.36523 25.5344 9.25781 25.6535L8.29102 26.6358C7.62695 27.3105 7.25586 28.2135 7.25586 29.166C7.25586 30.1186 7.62695 31.0216 8.29102 31.6963C8.95508 32.371 9.84375 32.7481 10.7812 32.7481C10.8984 32.7481 11.0254 32.7382 11.1426 32.7282C11.0352 33.7602 11.377 34.8318 12.1582 35.6256C12.8418 36.3202 13.75 36.6675 14.6484 36.6675C14.9219 36.6675 15.2051 36.6377 15.4785 36.5683C15.4883 37.5109 15.8496 38.394 16.5039 39.0588C17.168 39.7336 18.0566 40.1106 18.9941 40.1106C19.4141 40.1106 19.8242 40.0312 20.2148 39.8923C20.2148 39.8923 20.791 39.674 21.5625 38.9894C22.1777 38.3246 22.5195 37.4613 22.5195 36.5385C22.5098 35.5859 22.1484 34.683 21.4844 34.0083ZM10.7812 31.1506C10.2637 31.1506 9.77539 30.9422 9.4043 30.575C8.64258 29.8011 8.64258 28.5508 9.4043 27.7868L10.3711 26.8045C10.752 26.4175 11.25 26.229 11.748 26.229C12.2461 26.229 12.7441 26.4175 13.125 26.8045C13.8867 27.5784 13.8867 28.8287 13.125 29.5927L12.1582 30.575C11.7871 30.9422 11.2988 31.1506 10.7812 31.1506ZM16.0156 34.4945C15.2539 35.2684 14.0234 35.2684 13.2715 34.4945C12.5098 33.7205 12.5098 32.4703 13.2715 31.7062C14.0332 30.9323 15.2637 30.9323 16.0156 31.7062C16.7773 32.4802 16.7773 33.7304 16.0156 34.4945ZM20.3613 37.9376C19.9902 38.3146 19.502 38.5131 18.9844 38.5131C18.4668 38.5131 17.9785 38.3047 17.6074 37.9376C17.2363 37.5605 17.041 37.0743 17.041 36.5385C17.041 36.0126 17.2461 35.5165 17.6074 35.1394C17.9785 34.7624 18.4668 34.5639 18.9844 34.5639C19.502 34.5639 19.9902 34.7723 20.3613 35.1394C20.7324 35.5165 20.9277 36.0126 20.9277 36.5385C20.9277 37.0644 20.7324 37.5605 20.3613 37.9376Z" fill="#D2DBFF"/>
</g>
<defs>
<clipPath id="clip0_41_1313">
<rect width="50" height="41" fill="white" transform="translate(0 0.559326)"/>
</clipPath>
</defs>
</svg>
