<svg width="281" height="54" viewBox="0 0 281 54" fill="none" xmlns="http://www.w3.org/2000/svg">
<path d="M62.6639 26.955C62.6639 22.3727 66.4345 19.3177 72.0006 19.3177C76.4895 19.3177 79.5419 21.2046 80.4396 24.7088L78.1952 24.9783C77.477 22.4625 75.2326 21.1148 71.8211 21.1148C67.5118 21.1148 64.7288 23.361 64.7288 27.0449C64.7288 30.549 67.6016 32.8851 71.8211 32.8851C75.1428 32.8851 77.2077 31.7171 78.1952 29.2911L80.2601 29.6505C79.0032 32.8851 76.1304 34.5923 71.6415 34.5923C66.255 34.5923 62.6639 31.6272 62.6639 26.955Z" fill="#C5CFFF"/>
<path d="M92.0208 28.3926H85.7364V34.143H83.6716V19.8568H92.9185C96.8687 19.8568 98.0358 22.1031 98.0358 24.0798C98.0358 25.6971 97.138 27.5839 94.3549 28.123L98.5744 34.143H96.0607L92.0208 28.3926ZM85.6467 26.6854H92.4696C94.9834 26.6854 95.7914 25.3377 95.7914 24.0798C95.7914 22.9117 95.0732 21.564 92.4696 21.564H85.6467V26.6854Z" fill="#C5CFFF"/>
<path d="M105.757 29.0215L98.3051 19.8568H100.909L106.475 26.6854C106.654 26.8651 106.834 27.1347 106.834 27.4042C106.924 27.1347 107.013 26.955 107.193 26.6854L112.849 19.8568H115.452L107.821 29.0215V34.143H105.757V29.0215Z" fill="#C5CFFF"/>
<path d="M132.241 24.3493C132.241 27.1347 129.996 28.9317 126.495 28.9317H119.851V34.143H117.787V19.8568H126.944C130.176 19.8568 132.241 21.564 132.241 24.3493ZM130.086 24.3493C130.086 22.6422 128.739 21.564 126.585 21.564H119.851V27.2245H126.585C128.739 27.2245 130.086 26.1463 130.086 24.3493Z" fill="#C5CFFF"/>
<path d="M148.58 21.564H141.847V34.143H139.782V21.564H133.049V19.8568H148.67V21.564H148.58Z" fill="#C5CFFF"/>
<path d="M148.4 26.955C148.4 22.3727 152.171 19.3177 157.737 19.3177C163.303 19.3177 167.074 22.3727 167.074 26.955C167.074 31.4475 163.303 34.5923 157.737 34.5923C152.171 34.5923 148.4 31.5374 148.4 26.955ZM165.009 26.955C165.009 23.4509 162.046 21.0249 157.827 21.0249C153.518 21.0249 150.645 23.4509 150.645 26.955C150.645 30.4592 153.518 32.8851 157.827 32.8851C162.046 32.8851 165.009 30.4592 165.009 26.955Z" fill="#C5CFFF"/>
<path d="M169.049 27.0449C169.049 22.5524 172.909 19.4076 178.565 19.4076C183.234 19.4076 186.555 21.3843 187.453 24.7986L183.234 25.5174C182.695 23.5407 181.079 22.5524 178.475 22.5524C175.243 22.5524 173.268 24.2595 173.268 27.0449C173.268 29.8302 175.243 31.5374 178.475 31.5374C180.989 31.5374 182.605 30.549 183.234 28.6622L187.363 29.5607C186.196 32.7953 182.964 34.6821 178.296 34.6821C172.73 34.5923 169.049 31.6272 169.049 27.0449Z" fill="#6480FA"/>
<path d="M188.8 26.955C188.8 22.2828 192.57 19.3177 198.316 19.3177C204.062 19.3177 207.832 22.2828 207.832 26.955C207.832 31.6272 204.062 34.5923 198.316 34.5923C192.57 34.5923 188.8 31.6272 188.8 26.955ZM203.613 26.955C203.613 24.1697 201.548 22.3727 198.406 22.3727C195.264 22.3727 193.109 24.2595 193.109 26.955C193.109 29.7404 195.174 31.5374 198.406 31.5374C201.548 31.6272 203.613 29.7404 203.613 26.955Z" fill="#6480FA"/>
<path d="M210.166 19.8568H219.234C224.441 19.8568 227.852 22.2828 227.852 26.7753C227.852 31.1779 224.261 34.143 219.234 34.143H210.256V19.8568H210.166ZM218.605 31.3576C221.658 31.3576 223.453 29.6505 223.453 26.8651C223.453 24.0798 221.478 22.6422 218.516 22.6422H214.117V31.3576H218.605Z" fill="#6480FA"/>
<path d="M244.551 31.2678V34.143H230.007V19.8568H244.371V22.732H234.047V25.6072H244.012V28.2129H234.047V31.2678H244.551Z" fill="#6480FA"/>
<path d="M255.863 29.0215H251.733V34.143H247.693V19.8568H257.389C261.967 19.8568 263.314 22.1929 263.314 24.3493C263.314 25.9666 262.506 27.7636 260.172 28.5723L263.853 34.0532H259.274L255.863 29.0215ZM251.733 26.5057H256.491C258.466 26.5057 259.005 25.5174 259.005 24.529C259.005 23.5407 258.466 22.6422 256.491 22.6422H251.733V26.5057Z" fill="#6480FA"/>
<path d="M264.032 30.9084L266.905 28.8419C268.072 30.549 270.317 31.6272 273.189 31.6272C275.793 31.6272 276.96 31.0881 276.96 29.9201C276.96 29.0216 276.332 28.6622 274.716 28.4825L270.317 28.0332C266.815 27.6738 265.11 26.3261 265.11 23.7204C265.11 20.9351 267.893 19.2279 272.741 19.2279C276.332 19.2279 279.115 20.1264 280.91 22.193L278.307 24.3494C277.229 22.9118 275.254 22.1031 272.471 22.1031C270.227 22.1031 269.06 22.6422 269.06 23.6306C269.06 24.5291 269.598 24.7986 271.484 24.9783L275.434 25.3377C279.384 25.6971 281 26.8652 281 29.5607C281 32.7054 278.037 34.5025 272.92 34.5025C268.79 34.5923 265.469 33.1547 264.032 30.9084Z" fill="#6480FA"/>
<path opacity="0.19" d="M43.5416 34.3229C43.5416 36.03 42.6438 37.5575 41.2074 38.3661L29.2671 45.0151C27.8307 45.8237 26.2147 45.8237 24.7783 45.0151L12.838 38.3661C11.4016 37.5575 10.5039 36.03 10.5039 34.3229V19.6773C10.5039 18.06 11.4016 16.5325 12.838 15.7239L24.7783 8.98512C26.2147 8.17646 27.8307 8.17646 29.2671 8.98512L41.2074 15.7239C42.6438 16.5325 43.5416 19.3179 43.5416 20.9352V19.6773C43.5416 20.9352 43.0927 23.1815 44.3495 23.1815H50.6339C52.1601 23.1815 53.2374 21.654 52.7885 20.2164C49.0179 8.26631 37.347 -1.34766 23.9703 0.17979C11.4914 1.52754 1.52622 11.5009 0.179575 23.9003C-1.61595 40.1632 11.0425 53.9102 27.0227 53.9102C39.1425 53.9102 49.377 44.7455 52.7885 33.7838C53.2374 32.3462 52.1601 30.8187 50.6339 30.8187H43.0927C41.8358 30.8187 43.6313 32.9751 43.6313 34.233V34.3229H43.5416Z" fill="#6480FA"/>
<path d="M39.4118 32.6157C39.4118 33.8736 38.6936 35.0417 37.6163 35.6707L28.5489 40.7921C27.4716 41.4211 26.2147 41.4211 25.1374 40.7921L16.07 35.6707C14.9927 35.0417 14.2744 33.8736 14.2744 32.6157V21.3845C14.2744 20.1266 14.9927 18.9585 16.07 18.3295L25.1374 13.2081C26.2147 12.5791 27.4716 12.5791 28.5489 13.2081L37.6163 18.3295C38.6936 18.9585 39.4118 20.1266 39.4118 21.3845C39.4118 22.3728 40.2198 23.0916 41.1176 23.0916H44.7086C45.8757 23.0916 46.6837 21.9236 46.3246 20.8454C43.5415 11.7705 34.6537 5.48096 24.4192 6.55916C14.9927 7.54752 7.36167 15.1848 6.28435 24.6191C4.93771 37.0184 14.5438 47.441 26.6636 47.441C35.9106 47.441 43.6313 41.3312 46.2348 32.9751C46.5939 31.8071 45.7859 30.7289 44.6189 30.7289H41.0278C40.2198 30.8187 39.4118 31.5375 39.4118 32.6157Z" fill="#6480FA"/>
<path d="M25.9454 28.2131V34.4128C25.9454 34.9519 25.4067 35.3113 24.8681 35.0418L19.7508 32.1666C19.4815 32.0767 19.3917 31.8071 19.3917 31.5376V25.2481C19.3917 24.709 20.0202 24.3496 20.469 24.6191L25.5863 27.4943C25.8556 27.7639 25.9454 27.9436 25.9454 28.2131Z" fill="#6480FA"/>
<path d="M32.2297 23.0018L27.1125 25.877C26.9329 25.9668 26.6636 25.9668 26.3943 25.877L21.277 23.0018C20.8281 22.7322 20.8281 22.0134 21.277 21.7439L26.3943 18.8687C26.5738 18.7788 26.8432 18.7788 27.1125 18.8687L32.2297 21.7439C32.7684 22.0134 32.7684 22.7322 32.2297 23.0018Z" fill="#6480FA"/>
<path d="M34.2048 25.3379V31.6274C34.2048 31.897 34.0253 32.0767 33.8457 32.2564L28.7285 35.0418C28.2796 35.3113 27.6512 34.9519 27.6512 34.4128V28.2131C27.6512 27.9436 27.7409 27.7639 28.0103 27.5842L33.1275 24.709C33.6662 24.4394 34.2048 24.7988 34.2048 25.3379Z" fill="#6480FA"/>
</svg>
