<svg width="29" height="29" viewBox="0 0 29 29" fill="none" xmlns="http://www.w3.org/2000/svg">
<path d="M22.7687 15.9274C22.7648 15.3695 22.388 14.7062 21.9109 14.4172L20.6399 13.6472L20.6163 13.634C20.5973 13.6243 20.5886 13.6166 20.5879 13.6163C20.5814 13.6018 20.5811 13.5521 20.581 13.5224C20.5809 13.5 20.5807 13.4891 20.5798 13.4704C20.2853 6.96043 17.7088 0 14.3427 0H14.326C12.7716 0 11.3061 1.53934 10.1995 4.32142C9.20404 6.824 8.56729 10.1457 8.45253 13.4433C8.44879 13.552 8.43758 13.627 8.32144 13.7057L7.01346 14.522C6.54053 14.8178 6.17306 15.4858 6.17695 16.0435L6.2312 23.8596C6.23517 24.425 6.59448 24.6823 6.92663 24.6823C7.10853 24.6823 7.29257 24.6144 7.47349 24.4806L10.7278 22.0754C10.8047 22.0185 10.8782 21.9514 10.9473 21.8768L13.6253 28.2436C13.9022 28.9018 14.2986 29 14.5101 29C14.7216 29 15.1174 28.9019 15.3939 28.2449L18.0891 21.8365C18.1565 21.9062 18.2277 21.9692 18.302 22.0226L21.5894 24.3789C21.7689 24.5077 21.9505 24.5696 22.1293 24.5696H22.1295C22.3075 24.5696 22.4734 24.5048 22.5964 24.3809C22.7012 24.2755 22.8255 24.0805 22.8231 23.7423L22.7687 15.9274ZM11.9916 7.40138C11.9916 6.01298 13.1212 4.88339 14.5096 4.88339C15.898 4.88339 17.0276 6.01298 17.0276 7.40138C17.0276 8.78979 15.898 9.91938 14.5096 9.91938C13.1212 9.91938 11.9916 8.78979 11.9916 7.40138Z" fill="white"/>
</svg>
