<svg width="33" height="33" viewBox="0 0 33 33" fill="none" xmlns="http://www.w3.org/2000/svg">
<g clip-path="url(#clip0_41_1016)">
<path d="M8.35449 2.25087C8.32965 2.25047 8.30513 2.25661 8.28341 2.26868C8.26169 2.28074 8.24353 2.29831 8.23074 2.31962L0.0192433 16.4312C0.00641692 16.4529 -0.000350952 16.4776 -0.000350952 16.5027C-0.000350952 16.5279 0.00641692 16.5526 0.0192433 16.5742L8.32287 30.6817C8.37787 30.7752 8.51537 30.7752 8.57037 30.6817L16.7819 16.5715C16.7943 16.5496 16.8006 16.5248 16.8001 16.4996C16.7996 16.4745 16.7924 16.4499 16.7791 16.4285L8.47824 2.31962C8.46546 2.29831 8.4473 2.28074 8.42557 2.26868C8.40385 2.25661 8.37934 2.25047 8.35449 2.25087ZM12.2911 2.25087C12.2663 2.25075 12.2418 2.25717 12.2202 2.26948C12.1986 2.2818 12.1807 2.29958 12.1681 2.32104C12.1556 2.34249 12.1489 2.36687 12.1488 2.39173C12.1487 2.41658 12.1551 2.44103 12.1674 2.46262L19.2981 14.7922C19.3106 14.8141 19.3286 14.8324 19.3503 14.8452C19.372 14.8579 19.3967 14.8648 19.4219 14.8651H23.7077C23.8177 14.8651 23.8865 14.7441 23.8315 14.6492L16.7007 2.321C16.688 2.29953 16.6699 2.28176 16.6482 2.26946C16.6265 2.25716 16.6019 2.25075 16.577 2.25087H12.2925H12.2911ZM20.3912 2.25087C20.3665 2.25081 20.3421 2.25732 20.3207 2.26973C20.2992 2.28215 20.2814 2.30002 20.2691 2.32154C20.2568 2.34306 20.2505 2.36745 20.2507 2.39223C20.2509 2.41701 20.2576 2.4413 20.2702 2.46262L28.402 16.5L20.2702 30.5374C20.2576 30.5587 20.2509 30.583 20.2507 30.6078C20.2505 30.6325 20.2568 30.6569 20.2691 30.6785C20.2814 30.7 20.2992 30.7178 20.3207 30.7303C20.3421 30.7427 20.3665 30.7492 20.3912 30.7491H24.6854C24.7098 30.7495 24.7339 30.7433 24.7552 30.7312C24.7765 30.7191 24.7941 30.7016 24.8064 30.6804L32.9807 16.5701C32.9933 16.5489 33 16.5247 33 16.5C33 16.4753 32.9933 16.4511 32.9807 16.4299L24.8064 2.321C24.7943 2.29955 24.7767 2.28174 24.7554 2.2694C24.7342 2.25707 24.71 2.25067 24.6854 2.25087H20.3912ZM19.305 18.3384C19.28 18.3381 19.2554 18.3445 19.2339 18.3571C19.2123 18.3697 19.1946 18.388 19.1826 18.4099L12.1687 30.5374C12.1137 30.6322 12.1825 30.7491 12.2925 30.7491H16.5784C16.6032 30.7494 16.6277 30.7432 16.6493 30.7311C16.671 30.7191 16.6892 30.7016 16.7021 30.6804L23.7146 18.5529C23.7273 18.5312 23.734 18.5066 23.734 18.4816C23.734 18.4565 23.7274 18.4319 23.7148 18.4102C23.7023 18.3886 23.6842 18.3706 23.6624 18.3583C23.6406 18.3459 23.6159 18.3395 23.5909 18.3397H19.3036L19.305 18.3384Z" fill="white"/>
</g>
<defs>
<clipPath id="clip0_41_1016">
<rect width="33" height="33" fill="white"/>
</clipPath>
</defs>
</svg>
