<svg width="593" height="199" viewBox="0 0 593 199" fill="none" xmlns="http://www.w3.org/2000/svg">
<g opacity="0.65" clip-path="url(#clip0_84_2070)">
<path d="M27.4425 199H0V104.116H27.4425V199ZM0.726419 198.375H26.7161V104.74H0.726419V198.375Z" fill="#6F89FD"/>
<path d="M23.3261 108.072H4.03566V186.228H23.3261V108.072Z" fill="url(#paint0_linear_84_2070)"/>
<path d="M74.3369 199H46.8944V20.8232H74.3369V199ZM47.6208 198.375H73.6105V21.4479H47.6208V198.375Z" fill="#6F89FD"/>
<path d="M70.3012 24.7795H51.0108V186.228H70.3012V24.7795Z" fill="url(#paint1_linear_84_2070)"/>
<path d="M121.554 199H94.1116V145.762H121.554V199ZM94.838 198.375H120.828V146.387H94.838V198.375Z" fill="#6F89FD"/>
<path d="M117.438 149.719H98.1473V186.228H117.438V149.719Z" fill="url(#paint2_linear_84_2070)"/>
<path d="M168.691 199H141.248V122.857H168.691V199ZM141.975 198.375H167.964V123.481H141.975V198.375Z" fill="#6F89FD"/>
<path d="M164.655 126.813H145.365V186.228H164.655V126.813Z" fill="url(#paint3_linear_84_2070)"/>
<path d="M215.827 199H188.385V104.116H215.827V199ZM189.111 198.375H215.101V104.74H189.111V198.375Z" fill="#6F89FD"/>
<path d="M211.791 108.072H192.501V186.228H211.791V108.072Z" fill="url(#paint4_linear_84_2070)"/>
<path d="M262.802 199H235.36V148H262.802V199ZM236.086 198.84H262.076V148.16H236.086V198.84Z" fill="#6F89FD"/>
<path d="M259 148H239V197H259V148Z" fill="url(#paint5_linear_84_2070)"/>
<path d="M309.939 199H282.496V104.116H309.939V199ZM283.223 198.375H309.212V104.74H283.223V198.375Z" fill="#6F89FD"/>
<path d="M305.903 108.072H286.613V186.228H305.903V108.072Z" fill="url(#paint6_linear_84_2070)"/>
<path d="M357.156 199H329.713V30H357.156V199ZM330.44 198.469H356.43V30.5305H330.44V198.469Z" fill="#6F89FD"/>
<path d="M353 33H334V188H353V33Z" fill="url(#paint7_linear_84_2070)"/>
<path d="M404.292 199H376.85V121.468H404.292V199ZM377.576 198.375H403.566V122.093H377.576V198.375Z" fill="#6F89FD"/>
<path d="M400.257 125.425H380.966V186.228H400.257V125.425Z" fill="url(#paint8_linear_84_2070)"/>
<path d="M451.429 199H423.987V41.6463H451.429V199ZM424.713 198.375H450.703V42.271H424.713V198.375Z" fill="#6F89FD"/>
<path d="M447.393 45.6027H428.103V186.228H447.393V45.6027Z" fill="url(#paint9_linear_84_2070)"/>
<path d="M498.646 199H471.204V159.644H498.646V199ZM471.93 198.375H497.92V160.269H471.93V198.375Z" fill="#6F89FD"/>
<path d="M494.53 163.601H475.239V186.228H494.53V163.601Z" fill="url(#paint10_linear_84_2070)"/>
<path d="M545.783 199H518.34V104.116H545.783V199ZM519.067 198.375H545.056V104.74H519.067V198.375Z" fill="#6F89FD"/>
<path d="M541.747 108.072H522.457V186.228H541.747V108.072Z" fill="url(#paint11_linear_84_2070)"/>
<path d="M593 199H565.558V48.5874H593V199ZM566.284 198.375H592.274V49.2121H566.284V198.375Z" fill="#6F89FD"/>
<path d="M588.884 52.5438H569.593V186.228H588.884V52.5438Z" fill="url(#paint12_linear_84_2070)"/>
</g>
<defs>
<linearGradient id="paint0_linear_84_2070" x1="13.7154" y1="112.298" x2="13.7154" y2="183.952" gradientUnits="userSpaceOnUse">
<stop stop-color="#6480FA" stop-opacity="0.5"/>
<stop offset="1" stop-color="#070634" stop-opacity="0"/>
</linearGradient>
<linearGradient id="paint1_linear_84_2070" x1="60.6394" y1="33.4949" x2="60.6394" y2="181.537" gradientUnits="userSpaceOnUse">
<stop stop-color="#6480FA" stop-opacity="0.5"/>
<stop offset="1" stop-color="#070634" stop-opacity="0"/>
</linearGradient>
<linearGradient id="paint2_linear_84_2070" x1="107.808" y1="151.699" x2="107.808" y2="185.16" gradientUnits="userSpaceOnUse">
<stop stop-color="#6480FA" stop-opacity="0.5"/>
<stop offset="1" stop-color="#070634" stop-opacity="0"/>
</linearGradient>
<linearGradient id="paint3_linear_84_2070" x1="154.976" y1="130.028" x2="154.976" y2="184.496" gradientUnits="userSpaceOnUse">
<stop stop-color="#6480FA" stop-opacity="0.5"/>
<stop offset="1" stop-color="#070634" stop-opacity="0"/>
</linearGradient>
<linearGradient id="paint4_linear_84_2070" x1="202.145" y1="112.298" x2="202.145" y2="183.952" gradientUnits="userSpaceOnUse">
<stop stop-color="#6480FA" stop-opacity="0.5"/>
<stop offset="1" stop-color="#070634" stop-opacity="0"/>
</linearGradient>
<linearGradient id="paint5_linear_84_2070" x1="249.029" y1="150.645" x2="249.029" y2="195.577" gradientUnits="userSpaceOnUse">
<stop stop-color="#6480FA" stop-opacity="0.5"/>
<stop offset="1" stop-color="#070634" stop-opacity="0"/>
</linearGradient>
<linearGradient id="paint6_linear_84_2070" x1="296.237" y1="112.298" x2="296.237" y2="183.952" gradientUnits="userSpaceOnUse">
<stop stop-color="#6480FA" stop-opacity="0.5"/>
<stop offset="1" stop-color="#070634" stop-opacity="0"/>
</linearGradient>
<linearGradient id="paint7_linear_84_2070" x1="343.511" y1="41.3659" x2="343.511" y2="183.497" gradientUnits="userSpaceOnUse">
<stop stop-color="#6480FA" stop-opacity="0.5"/>
<stop offset="1" stop-color="#070634" stop-opacity="0"/>
</linearGradient>
<linearGradient id="paint8_linear_84_2070" x1="390.574" y1="128.715" x2="390.574" y2="184.455" gradientUnits="userSpaceOnUse">
<stop stop-color="#6480FA" stop-opacity="0.5"/>
<stop offset="1" stop-color="#070634" stop-opacity="0"/>
</linearGradient>
<linearGradient id="paint9_linear_84_2070" x1="437.742" y1="53.1957" x2="437.742" y2="182.141" gradientUnits="userSpaceOnUse">
<stop stop-color="#6480FA" stop-opacity="0.5"/>
<stop offset="1" stop-color="#070634" stop-opacity="0"/>
</linearGradient>
<linearGradient id="paint10_linear_84_2070" x1="484.911" y1="164.833" x2="484.911" y2="185.562" gradientUnits="userSpaceOnUse">
<stop stop-color="#6480FA" stop-opacity="0.5"/>
<stop offset="1" stop-color="#070634" stop-opacity="0"/>
</linearGradient>
<linearGradient id="paint11_linear_84_2070" x1="532.079" y1="112.298" x2="532.079" y2="183.952" gradientUnits="userSpaceOnUse">
<stop stop-color="#6480FA" stop-opacity="0.5"/>
<stop offset="1" stop-color="#070634" stop-opacity="0"/>
</linearGradient>
<linearGradient id="paint12_linear_84_2070" x1="579.247" y1="59.7626" x2="579.247" y2="182.342" gradientUnits="userSpaceOnUse">
<stop stop-color="#6480FA" stop-opacity="0.5"/>
<stop offset="1" stop-color="#070634" stop-opacity="0"/>
</linearGradient>
<clipPath id="clip0_84_2070">
<rect width="593" height="199" fill="white"/>
</clipPath>
</defs>
</svg>
