<svg width="41" height="42" viewBox="0 0 41 42" fill="none" xmlns="http://www.w3.org/2000/svg">
<g clip-path="url(#clip0_41_1182)">
<path d="M40.4092 39.8146H1.63312V41.5593H40.4092V39.8146Z" fill="#D2DBFF"/>
<path d="M35.6838 13.6299H33.9391V37.3961H35.6838V13.6299Z" fill="#6F89FD"/>
<path d="M25.9896 19.5259H24.245V37.5333H25.9896V19.5259Z" fill="#D2DBFF"/>
<path d="M17.115 13.6299H15.3703V37.3961H17.115V13.6299Z" fill="#6F89FD"/>
<path d="M7.42082 19.5259H5.67615V37.5333H7.42082V19.5259Z" fill="#D2DBFF"/>
<path d="M9.04969 11.7549C9.04969 11.0982 8.90443 10.475 8.64613 9.91469L11.9863 8.13102C12.79 9.03938 13.9614 9.61321 15.2646 9.61321C16.1408 9.61321 16.957 9.35299 17.6426 8.90701L21.2806 11.0254C21.08 11.5289 20.9686 12.0774 20.9686 12.6519C20.9686 15.0773 22.9351 17.0511 25.3524 17.0511C27.77 17.0511 29.7367 15.0773 29.7367 12.6519C29.7367 12.1514 29.6518 11.6708 29.4976 11.2223L33.5801 8.37711C34.3334 8.98918 35.2918 9.35684 36.3345 9.35684C38.7518 9.35684 40.7183 7.3839 40.7183 4.95846C40.7183 2.53302 38.7518 0.559326 36.3346 0.559326C33.917 0.559326 31.9504 2.53318 31.9504 4.95854C31.9504 5.70583 32.1376 6.40986 32.4666 7.02678L28.6115 9.71354C27.8084 8.81798 26.6451 8.25369 25.3525 8.25369C24.1343 8.25369 23.0311 8.75506 22.2359 9.56251L18.9236 7.63367C19.3812 6.93918 19.6485 6.10796 19.6485 5.21492C19.6485 2.78964 17.6819 0.815785 15.2647 0.815785C12.847 0.815785 10.8804 2.78964 10.8804 5.21492C10.8804 5.7065 10.9624 6.179 11.1114 6.62072L7.6044 8.49358C6.82632 7.78696 5.79538 7.35579 4.66579 7.35579C2.24813 7.35579 0.281464 9.32964 0.281464 11.755C0.281464 14.1804 2.24804 16.1534 4.66579 16.1534C7.08311 16.1533 9.04969 14.1803 9.04969 11.7549ZM36.3346 2.304C37.7897 2.304 38.9738 3.49493 38.9738 4.95854C38.9738 6.42207 37.7896 7.61216 36.3346 7.61216C34.8792 7.61216 33.695 6.42199 33.695 4.95854C33.695 3.49493 34.8792 2.304 36.3346 2.304ZM25.3525 9.99828C26.8079 9.99828 27.9921 11.1884 27.9921 12.652C27.9921 14.1156 26.8079 15.3065 25.3525 15.3065C23.8974 15.3065 22.7133 14.1156 22.7133 12.652C22.7132 11.1884 23.8974 9.99828 25.3525 9.99828ZM15.2647 2.56046C16.7198 2.56046 17.9039 3.75139 17.9039 5.21492C17.9039 6.67853 16.7197 7.86862 15.2647 7.86862C13.8093 7.86862 12.6251 6.67853 12.6251 5.21492C12.6251 3.75139 13.8093 2.56046 15.2647 2.56046ZM2.02622 11.7549C2.02622 10.2914 3.21045 9.10038 4.66587 9.10038C6.12095 9.10038 7.30502 10.2914 7.30502 11.7549C7.30502 13.2185 6.12087 14.4085 4.66587 14.4085C3.21045 14.4086 2.02622 13.2185 2.02622 11.7549Z" fill="#6F89FD"/>
</g>
<defs>
<clipPath id="clip0_41_1182">
<rect width="41" height="41" fill="white" transform="translate(0 0.559326)"/>
</clipPath>
</defs>
</svg>
