<svg width="29" height="29" viewBox="0 0 29 29" fill="none" xmlns="http://www.w3.org/2000/svg">
<path d="M2.41666 12.0833C2.41666 10.7486 3.49863 9.66663 4.83332 9.66663H24.1667C25.5014 9.66663 26.5833 10.7486 26.5833 12.0833V20.5416C26.5833 21.8764 25.5014 22.9583 24.1667 22.9583H19.4933C18.6445 22.9583 17.8577 22.5129 17.421 21.785L15.5361 18.6436C15.0668 17.8613 13.9332 17.8613 13.4638 18.6436L11.579 21.785C11.1422 22.5129 10.3556 22.9583 9.5067 22.9583H4.83332C3.49863 22.9583 2.41666 21.8764 2.41666 20.5416V12.0833Z" stroke="white" stroke-width="2" stroke-linecap="round" stroke-linejoin="round"/>
<path d="M4.60681 8.19391C5.50323 6.84928 7.01235 6.04163 8.62839 6.04163H20.3717C21.9877 6.04163 23.4968 6.84928 24.3932 8.19391L25.375 9.66663H3.625L4.60681 8.19391Z" stroke="white" stroke-width="2" stroke-linecap="round" stroke-linejoin="round"/>
</svg>
